<?xml version="1.0" encoding="utf-8"?>
<!-- Generator: Adobe Illustrator 27.1.1, SVG Export Plug-In . SVG Version: 6.00 Build 0)  -->
<svg version="1.1" id="Layer_1" xmlns="http://www.w3.org/2000/svg" xmlns:xlink="http://www.w3.org/1999/xlink" x="0px" y="0px"
	 viewBox="0 0 2743.66 754.89" style="enable-background:new 0 0 2743.66 754.89;" xml:space="preserve">
<style type="text/css">
	.st0{fill:#007BC2;stroke:#007BC2;stroke-width:0.9915;stroke-miterlimit:10;}
	.st1{fill:#007BC2;stroke:#007BC2;stroke-width:1.3525;stroke-miterlimit:10;}
	.st2{fill:#007BC2;stroke:#007BC2;stroke-width:0.9431;stroke-miterlimit:10;}
	.st3{fill:#007BC2;stroke:#007BC2;stroke-width:1.542;stroke-miterlimit:10;}
	.st4{fill:#007BC2;stroke:#007BC2;stroke-width:1.824;stroke-miterlimit:10;}
	.st5{fill:#007BC2;stroke:#007BC2;stroke-width:1.8021;stroke-miterlimit:10;}
	.st6{fill:#007BC2;stroke:#007BC2;stroke-width:1.7636;stroke-miterlimit:10;}
	.st7{fill:#007BC2;stroke:#007BC2;stroke-width:1.7085;stroke-miterlimit:10;}
	.st8{fill:#007BC2;stroke:#007BC2;stroke-width:1.4472;stroke-miterlimit:10;}
	.st9{fill:#007BC2;stroke:#007BC2;stroke-width:1.3324;stroke-miterlimit:10;}
	.st10{fill:#007BC2;stroke:#007BC2;stroke-width:1.3504;stroke-miterlimit:10;}
	.st11{fill:#007BC2;stroke:#007BC2;stroke-width:1.4223;stroke-miterlimit:10;}
	.st12{fill:#007BC2;stroke:#007BC2;stroke-width:1.5811;stroke-miterlimit:10;}
	.st13{fill:#007BC2;stroke:#007BC2;stroke-width:1.4022;stroke-miterlimit:10;}
	.st14{fill:#007BC2;stroke:#007BC2;stroke-width:1.1909;stroke-miterlimit:10;}
	.st15{fill:#007BC2;stroke:#007BC2;stroke-width:1.3509;stroke-miterlimit:10;}
	.st16{fill:#007BC2;stroke:#007BC2;stroke-width:1.0714;stroke-miterlimit:10;}
	.st17{fill:#007BC2;stroke:#007BC2;stroke-width:1.0053;stroke-miterlimit:10;}
	.st18{fill:#007BC2;stroke:#007BC2;stroke-width:1.0362;stroke-miterlimit:10;}
	.st19{fill:#007BC2;stroke:#007BC2;stroke-width:0.9524;stroke-miterlimit:10;}
	.st20{fill:#007BC2;stroke:#007BC2;stroke-width:1.1298;stroke-miterlimit:10;}
	.st21{fill:#007BC2;stroke:#007BC2;stroke-width:1.0048;stroke-miterlimit:10;}
	.st22{fill:#007BC2;stroke:#007BC2;stroke-width:1.1731;stroke-miterlimit:10;}
	.st23{fill:#007BC2;stroke:#007BC2;stroke-width:1.3006;stroke-miterlimit:10;}
	.st24{fill:#007BC2;stroke:#007BC2;stroke-width:1.5091;stroke-miterlimit:10;}
	.st25{fill:#007BC2;stroke:#007BC2;stroke-width:1.3647;stroke-miterlimit:10;}
	.st26{fill:#007BC2;stroke:#007BC2;stroke-width:1.5562;stroke-miterlimit:10;}
	.st27{fill:#007BC2;stroke:#007BC2;stroke-width:1.7205;stroke-miterlimit:10;}
	.st28{fill:#007BC2;stroke:#007BC2;stroke-width:1.4863;stroke-miterlimit:10;}
	.st29{fill:#007BC2;stroke:#007BC2;stroke-width:1.6385;stroke-miterlimit:10;}
	.st30{fill:#007BC2;stroke:#007BC2;stroke-width:1.5068;stroke-miterlimit:10;}
	.st31{fill:#007BC2;stroke:#007BC2;stroke-width:1.1175;stroke-miterlimit:10;}
	.st32{fill:#007BC2;stroke:#007BC2;stroke-width:0.7718;stroke-miterlimit:10;}
	.st33{fill:#007BC2;stroke:#007BC2;stroke-width:1.1877;stroke-miterlimit:10;}
	.st34{fill:#007BC2;stroke:#007BC2;stroke-width:1.2435;stroke-miterlimit:10;}
	.st35{fill:#007BC2;stroke:#007BC2;stroke-width:1.3859;stroke-miterlimit:10;}
	.st36{fill:#007BC2;stroke:#007BC2;stroke-width:1.5832;stroke-miterlimit:10;}
	.st37{fill:#007BC2;stroke:#007BC2;stroke-width:1.6759;stroke-miterlimit:10;}
	.st38{fill:#007BC2;stroke:#007BC2;stroke-width:1.7279;stroke-miterlimit:10;}
	.st39{fill:#007BC2;stroke:#007BC2;stroke-width:2.0427;stroke-miterlimit:10;}
	.st40{fill:#007BC2;stroke:#007BC2;stroke-width:1.7706;stroke-miterlimit:10;}
	.st41{fill:#007BC2;stroke:#007BC2;stroke-width:1.3323;stroke-miterlimit:10;}
	.st42{fill:#007BC2;stroke:#007BC2;stroke-width:1.4747;stroke-miterlimit:10;}
	.st43{fill:#007BC2;stroke:#007BC2;stroke-width:0.9341;stroke-miterlimit:10;}
	.st44{fill:#007BC2;stroke:#007BC2;stroke-width:1.276;stroke-miterlimit:10;}
	.st45{fill:#007BC2;stroke:#007BC2;stroke-width:0.57;stroke-miterlimit:10;}
	.st46{fill:#007BC2;stroke:#007BC2;stroke-width:1.4941;stroke-miterlimit:10;}
	.st47{fill:#007BC2;stroke:#007BC2;stroke-width:1.1892;stroke-miterlimit:10;}
	.st48{fill:#007BC2;stroke:#007BC2;stroke-width:0.9758;stroke-miterlimit:10;}
	.st49{fill:#007BC2;stroke:#007BC2;stroke-width:0.7811;stroke-miterlimit:10;}
	.st50{fill:#007BC2;stroke:#007BC2;stroke-width:2.1211;stroke-miterlimit:10;}
	.st51{fill:#007BC2;stroke:#007BC2;stroke-width:1.4045;stroke-miterlimit:10;}
</style>
<path class="st0" d="M47.28,754.04H0.58V617.45c0-1.52,1.23-2.75,2.75-2.75h41.21c1.52,0,2.75,1.23,2.75,2.75V754.04z"/>
<path class="st1" d="M99.95,754.04h-46.7V498.56c0-2.07,1.68-3.74,3.74-3.74h39.21c2.07,0,3.74,1.68,3.74,3.74V754.04z"/>
<path class="st2" d="M152.62,754.04h-46.7V630.61c0-1.44,1.17-2.61,2.61-2.61h41.48c1.44,0,2.61,1.17,2.61,2.61V754.04z"/>
<path class="st3" d="M205.28,754.04h-46.7V421.35c0-2.36,1.91-4.27,4.27-4.27h38.16c2.36,0,4.27,1.91,4.27,4.27V754.04z"/>
<path class="st4" d="M257.95,754.04h-46.7V287.58c0-2.79,2.26-5.05,5.05-5.05h36.6c2.79,0,5.05,2.26,5.05,5.05V754.04z"/>
<path class="st5" d="M415.95,754.04h-46.7V298.78c0-2.76,2.23-4.99,4.99-4.99h36.72c2.76,0,4.99,2.23,4.99,4.99V754.04z"/>
<path class="st6" d="M468.62,754.04h-46.7V318.13c0-2.7,2.19-4.88,4.88-4.88h36.93c2.7,0,4.88,2.19,4.88,4.88V754.04z"/>
<path class="st7" d="M521.28,754.04h-46.7V345.1c0-2.61,2.12-4.73,4.73-4.73h37.24c2.61,0,4.73,2.12,4.73,4.73V754.04z"/>
<path class="st8" d="M573.95,754.04h-46.7V461.21c0-2.21,1.79-4.01,4.01-4.01h38.69c2.21,0,4.01,1.79,4.01,4.01V754.04z"/>
<path class="st9" d="M626.62,754.04h-46.7v-247.9c0-2.04,1.65-3.69,3.69-3.69h39.32c2.04,0,3.69,1.65,3.69,3.69V754.04z"/>
<path class="st10" d="M837.28,754.04h-46.7v-254.7c0-2.06,1.67-3.74,3.74-3.74h39.22c2.06,0,3.74,1.67,3.74,3.74V754.04z"/>
<path class="st11" d="M942.62,754.04h-46.7V471.29c0-2.17,1.76-3.94,3.94-3.94h38.82c2.17,0,3.94,1.76,3.94,3.94V754.04z"/>
<path class="st12" d="M995.28,754.04h-46.7V404.15c0-2.42,1.96-4.38,4.38-4.38h37.95c2.42,0,4.38,1.96,4.38,4.38V754.04z"/>
<path class="st13" d="M1047.95,754.04h-46.7V479.27c0-2.14,1.74-3.88,3.88-3.88h38.94c2.14,0,3.88,1.74,3.88,3.88V754.04z"/>
<path class="st14" d="M1100.62,754.04h-46.7V556.36c0-1.82,1.48-3.3,3.3-3.3h40.11c1.82,0,3.3,1.48,3.3,3.3V754.04z"/>
<path class="st15" d="M1153.28,754.04h-46.7V499.16c0-2.07,1.67-3.74,3.74-3.74h39.22c2.07,0,3.74,1.67,3.74,3.74V754.04z"/>
<path class="st16" d="M1205.95,754.04h-46.7V594.32c0-1.64,1.33-2.97,2.97-2.97h40.77c1.64,0,2.97,1.33,2.97,2.97V754.04z"/>
<path class="st17" d="M1258.62,754.04h-46.7V613.58c0-1.54,1.25-2.78,2.78-2.78h41.13c1.54,0,2.78,1.25,2.78,2.78V754.04z"/>
<path class="st18" d="M1311.28,754.04h-46.7V604.75c0-1.58,1.28-2.87,2.87-2.87h40.96c1.58,0,2.87,1.28,2.87,2.87V754.04z"/>
<path class="st19" d="M1363.95,754.04h-46.7v-125.9c0-1.46,1.18-2.64,2.64-2.64h41.43c1.46,0,2.64,1.18,2.64,2.64V754.04z"/>
<path class="st20" d="M1416.61,754.04h-46.7V576.27c0-1.73,1.4-3.13,3.13-3.13h40.44c1.73,0,3.13,1.4,3.13,3.13V754.04z"/>
<path class="st21" d="M1469.28,754.04h-46.7V613.74c0-1.54,1.25-2.78,2.78-2.78h41.14c1.54,0,2.78,1.25,2.78,2.78V754.04z"/>
<path class="st22" d="M1574.61,754.04h-46.7V562.27c0-1.79,1.45-3.25,3.25-3.25h40.2c1.79,0,3.25,1.45,3.25,3.25V754.04z"/>
<path class="st23" d="M1627.28,754.04h-46.7V517.9c0-1.99,1.61-3.6,3.6-3.6h39.5c1.99,0,3.6,1.61,3.6,3.6V754.04z"/>
<path class="st24" d="M1679.95,754.04h-46.7V435.47c0-2.31,1.87-4.18,4.18-4.18h38.34c2.31,0,4.18,1.87,4.18,4.18V754.04z"/>
<path class="st25" d="M1732.61,754.04h-46.7V493.87c0-2.09,1.69-3.78,3.78-3.78h39.14c2.09,0,3.78,1.69,3.78,3.78V754.04z"/>
<path class="st26" d="M1785.28,754.04h-46.7V415.16c0-2.38,1.93-4.31,4.31-4.31h38.08c2.38,0,4.31,1.93,4.31,4.31V754.04z"/>
<path class="st27" d="M1837.95,754.04h-46.7V339.3c0-2.63,2.13-4.76,4.76-4.76h37.17c2.63,0,4.76,2.13,4.76,4.76V754.04z"/>
<path class="st28" d="M1890.61,754.04h-46.7V445.07c0-2.27,1.84-4.11,4.11-4.11h38.47c2.27,0,4.11,1.84,4.11,4.11V754.04z"/>
<path class="st29" d="M1943.28,754.04h-46.7V378.11c0-2.51,2.03-4.54,4.54-4.54h37.63c2.51,0,4.54,2.03,4.54,4.54V754.04z"/>
<path class="st30" d="M1995.95,754.04h-46.7V436.46c0-2.3,1.87-4.17,4.17-4.17h38.36c2.3,0,4.17,1.87,4.17,4.17V754.04z"/>
<path class="st31" d="M2048.61,754.04h-46.7V580.15c0-1.71,1.39-3.09,3.09-3.09h40.51c1.71,0,3.09,1.39,3.09,3.09V754.04z"/>
<path class="st32" d="M2101.28,754.04h-46.7v-82.28c0-1.18,0.96-2.14,2.14-2.14h42.43c1.18,0,2.14,0.96,2.14,2.14V754.04z"/>
<path class="st33" d="M2153.95,754.04h-46.7V557.4c0-1.82,1.47-3.29,3.29-3.29h40.12c1.82,0,3.29,1.47,3.29,3.29V754.04z"/>
<path class="st34" d="M2206.61,754.04h-46.7V538.35c0-1.9,1.54-3.44,3.44-3.44h39.81c1.9,0,3.44,1.54,3.44,3.44V754.04z"/>
<path class="st35" d="M2259.28,754.04h-46.7V485.66c0-2.12,1.72-3.84,3.84-3.84h39.03c2.12,0,3.84,1.72,3.84,3.84V754.04z"/>
<path class="st36" d="M2311.95,754.04h-46.7V403.21c0-2.42,1.96-4.38,4.38-4.38h37.93c2.42,0,4.38,1.96,4.38,4.38V754.04z"/>
<path class="st37" d="M2364.61,754.04h-46.7V360.66c0-2.56,2.08-4.64,4.64-4.64h37.42c2.56,0,4.64,2.08,4.64,4.64V754.04z"/>
<path class="st38" d="M2417.28,754.04h-46.7V335.69c0-2.64,2.14-4.78,4.78-4.78h37.13c2.64,0,4.78,2.14,4.78,4.78V754.04z"/>
<path class="st39" d="M2469.95,754.04h-46.7V168.34c0-3.12,2.53-5.66,5.66-5.66h35.39c3.12,0,5.66,2.53,5.66,5.66V754.04z"/>
<path class="st40" d="M2575.28,754.04h-46.7V314.68c0-2.71,2.19-4.9,4.9-4.9h36.9c2.71,0,4.9,2.19,4.9,4.9V754.04z"/>
<path class="st41" d="M2522.61,754.04h-46.7V506.18c0-2.04,1.65-3.69,3.69-3.69h39.32c2.04,0,3.69,1.65,3.69,3.69V754.04z"/>
<path class="st42" d="M2627.95,754.04h-46.7V449.92c0-2.25,1.83-4.08,4.08-4.08h38.53c2.25,0,4.08,1.83,4.08,4.08V754.04z"/>
<path class="st43" d="M2680.61,754.04h-46.7V632.96c0-1.43,1.16-2.59,2.59-2.59h41.53c1.43,0,2.59,1.16,2.59,2.59V754.04z"/>
<path class="st44" d="M2733.28,754.04h-46.7V526.81c0-1.95,1.58-3.53,3.53-3.53h39.63c1.95,0,3.53,1.58,3.53,3.53V754.04z"/>
<path class="st45" d="M1521.95,754.04h-46.7v-44.47c0-0.87,0.71-1.58,1.58-1.58h43.54c0.87,0,1.58,0.71,1.58,1.58V754.04z"/>
<path class="st46" d="M889.95,754.04h-46.7V441.81c0-2.28,1.85-4.14,4.14-4.14h38.43c2.28,0,4.14,1.85,4.14,4.14V754.04z"/>
<path class="st47" d="M679.28,754.04h-46.7V556.91c0-1.82,1.47-3.29,3.29-3.29h40.11c1.82,0,3.29,1.47,3.29,3.29V754.04z"/>
<path class="st48" d="M731.95,754.04h-46.7V621.8c0-1.49,1.21-2.7,2.7-2.7h41.3c1.49,0,2.7,1.21,2.7,2.7V754.04z"/>
<path class="st49" d="M784.62,754.04h-46.7v-84.3c0-1.19,0.97-2.16,2.16-2.16h42.37c1.19,0,2.16,0.97,2.16,2.16V754.04z"/>
<path class="st50" d="M363.28,754.04h-46.7V122.32c0-3.24,2.63-5.87,5.87-5.87h34.95c3.24,0,5.87,2.63,5.87,5.87V754.04z"/>
<path class="st51" d="M310.62,754.04h-46.7V478.37c0-2.15,1.74-3.89,3.89-3.89h38.92c2.15,0,3.89,1.74,3.89,3.89V754.04z"/>
</svg>
