<?xml version="1.0" encoding="utf-8"?>
<!-- Generator: Adobe Illustrator 27.1.1, SVG Export Plug-In . SVG Version: 6.00 Build 0)  -->
<svg version="1.1" id="Layer_1" xmlns="http://www.w3.org/2000/svg" xmlns:xlink="http://www.w3.org/1999/xlink" x="0px" y="0px"
	 viewBox="0 0 936.19 451" style="enable-background:new 0 0 936.19 451;" xml:space="preserve">
<style type="text/css">
	.st0{clip-path:url(#SVGID_00000036247944297847355700000004923521390739447202_);fill:#202020;}
	.st1{fill:#202020;}
</style>
<g>
	<g>
		<defs>
			<path id="SVGID_1_" d="M760.13,193.41c0,83.39-36.35,144.85-83.33,186.22c79.34-16.66,140.06-104.4,140.06-198.83
				c0.08-7.69-0.05-15.45-0.37-22.29l61.33-20.95c7.76-2.71,12.72-6.93,12.74-14.35c0.03-5.01,0.04-7.6,0.04-7.6
				c-33.15-0.61-153.34-4.58-153.34-4.58C748.5,128.73,760.13,159.14,760.13,193.41 M732.56,89.66c56.24,8.52,91.17,1.83,91.17,1.83
				s-8.02-29.58-31.27-29.69c-36.81-0.15-62.75-3.88-62.75-3.88C651.2,46.04,630.85,18.3,630.85,18.3
				C635.43,48.87,682.32,82.01,732.56,89.66"/>
		</defs>
		<use xlink:href="#SVGID_1_"  style="overflow:visible;fill:#202020;"/>
		<clipPath id="SVGID_00000145752473252278403650000013521069247294587322_">
			<use xlink:href="#SVGID_1_"  style="overflow:visible;"/>
		</clipPath>
		
			<rect x="630.85" y="18.3" style="clip-path:url(#SVGID_00000145752473252278403650000013521069247294587322_);fill:#202020;" width="259.75" height="361.33"/>
	</g>
	<path class="st1" d="M45.59,317.11v-10.98c10.78-3.99,18.72-13.62,18.72-35.75v-97.22h16.64v96.09
		C80.95,298.57,63.74,315.03,45.59,317.11"/>
	<path class="st1" d="M142.61,277.01c-26.48,0-38.77-11.54-38.77-30.07c0-27.06,25.35-34.99,56.92-38.21v-6.23
		c0-15.71-9.45-20.25-22.49-20.25c-9.85,0-18.91,3.6-24.6,6.42l-3.96-9.82c5.85-3.23,17.2-7.56,31.2-7.56
		c18.92,0,35.56,8.13,35.56,33.08v65.46C168.71,274.18,156.79,277.01,142.61,277.01 M160.75,217.25
		c-25.71,3.21-41.04,8.7-41.04,29.31c0,14.76,9.08,20.8,24.22,20.8c6.43,0,12.67-1.14,16.81-3.41V217.25z"/>
	<path class="st1" d="M260.64,275.12v-73.2c0-9.44-3.98-19.87-21.38-19.87c-9.47,0-14,1.33-19.3,3.6v89.47h-16.64v-96.65
		c9.05-4.36,21-7.19,37.26-7.19c28.36,0,36.7,15.69,36.7,30.26v73.58H260.64z"/>
	<path class="st1" d="M323.99,276.62c-10.98,0-20.61-2.84-26.1-6.98l4.53-10.99c3.6,3.03,10.77,6.06,19.86,6.06
		c11.34,0,18.91-7.76,18.91-17.59c0-10.59-5.68-15.31-16.84-19.46c-19.85-7.4-23.85-17.99-23.85-28.58
		c0-15.14,11.93-27.99,30.47-27.99c10.39,0,18.53,3.41,23.82,6.99l-4.35,10.02c-3.03-2.24-9.08-5.65-17.02-5.65
		c-11.16,0-17.03,7.37-17.03,16.08c0,9.83,7.18,14.57,17.03,18.35c19.86,7.56,24.78,18.15,24.78,29.89
		C358.22,262.26,344.79,276.62,323.99,276.62"/>
	<path class="st1" d="M398.5,276.62c-10.96,0-20.62-2.84-26.09-6.98l4.53-10.99c3.61,3.03,10.79,6.06,19.87,6.06
		c11.33,0,18.92-7.76,18.92-17.59c0-10.59-5.69-15.31-16.84-19.46c-19.85-7.4-23.84-17.99-23.84-28.58
		c0-15.14,11.91-27.99,30.46-27.99c10.39,0,18.54,3.41,23.83,6.99l-4.36,10.02c-3.02-2.24-9.08-5.65-17.02-5.65
		c-11.15,0-17.02,7.37-17.02,16.08c0,9.83,7.18,14.57,17.02,18.35c19.88,7.56,24.77,18.15,24.77,29.89
		C432.72,262.26,419.3,276.62,398.5,276.62"/>
	<path class="st1" d="M466.77,230.49c1.89,23.07,12.68,34.42,31.02,34.42c11.54,0,19.85-2.83,25.16-5.87l4.35,10.97
		c-6.24,3.76-17.03,7-30.84,7c-26.66,0-45.39-16.84-45.39-53.16c0-34.6,17.04-52.57,41.04-52.57c24.41,0,39.16,15.89,38.78,49.92
		L466.77,230.49z M491.55,182.05c-14.75,0-25.73,11.93-25.34,39.56l48.8-7.41C515.01,191.14,506.12,182.05,491.55,182.05"/>
	<path class="st1" d="M611.08,275.12v-73.2c0-9.44-3.98-19.87-21.37-19.87c-9.47,0-13.99,1.33-19.3,3.6v89.47h-16.65v-96.65
		c9.08-4.36,20.99-7.19,37.26-7.19c28.36,0,36.69,15.69,36.69,30.26v73.58H611.08z"/>
	<path class="st1" d="M124.71,334.61c4.6,0,7.04,2.19,7.04,6.66c0,4.93-4.34,6.45-7.87,6.45h-3.94v6.37h-4.88v-19.48H124.71z
		 M119.94,344.1h3.2c2.22,0,3.75-0.52,3.75-3.06c0-2.82-2.31-2.83-3.83-2.83h-3.11V344.1z"/>
	<polygon class="st1" points="146.8,354.1 146.8,345.78 139.68,345.78 139.68,354.1 134.77,354.1 134.77,334.62 139.68,334.62 
		139.68,341.66 146.8,341.66 146.8,334.62 151.68,334.62 151.68,354.1 	"/>
	<path class="st1" d="M168.85,354.1l-0.97-3.13h-7.17l-0.97,3.13h-5.17l7.21-19.47h5.07l7.17,19.47H168.85z M164.25,339.25
		l-2.41,8.24h4.94L164.25,339.25z"/>
	<path class="st1" d="M186.19,334.62c2.9,0,7.46,0.74,7.46,6.32c0,3.3-1.87,4.63-3.99,5.36l4.49,7.8h-5.35l-3.89-6.95h-3.03v6.95
		h-4.9v-19.47H186.19z M181.85,343.53h4.04c2.78,0,2.92-2.1,2.92-2.71c0-2.54-2.03-2.59-2.89-2.59h-4.07V343.53z"/>
	<path class="st1" d="M215.22,354.1c0,0,0-10.75,0.11-14.57l-4.05,14.57h-4.22l-4.03-14.57c0.09,2.72,0.12,14.57,0.12,14.57h-4.74
		v-19.47h7.1l3.66,13.63l3.62-13.63h7.11v19.47H215.22z"/>
	<path class="st1" d="M237.09,354.1l-0.97-3.13h-7.17l-0.96,3.13h-5.18l7.23-19.47h5.07l7.17,19.47H237.09z M232.48,339.25
		l-2.39,8.24h4.93L232.48,339.25z"/>
	<path class="st1" d="M261.01,349.64c-1.55,2.71-4.33,5.03-8.39,5.03c-5.16,0-9.33-3.76-9.33-10.35c0-5.76,3.92-10.31,9.43-10.31
		c3.58,0,6.84,2.12,8.22,5.04l-3.86,1.94c-0.42-1.46-2.16-2.98-4.14-2.98c-3.14,0-4.8,2.93-4.8,6.18c0,4.29,2.17,6.41,4.8,6.41
		c2.53,0,3.56-1.77,4.21-2.9L261.01,349.64z"/>
	<polygon class="st1" points="264.47,334.62 278.87,334.62 278.87,338.4 269.32,338.4 269.32,341.94 278.23,341.94 278.23,345.62 
		269.32,345.62 269.32,350.25 279.72,350.25 279.72,354.1 264.47,354.1 	"/>
	<path class="st1" d="M300.04,346.39c0,4.89-3.12,8.13-8.39,8.13c-4.57,0-8.24-2.41-8.24-7.8v-12.1h4.9v12.66
		c0,2.59,1.33,3.22,3.51,3.22c2.48,0,3.34-1.25,3.34-3.47v-12.41h4.88V346.39z"/>
	<polygon class="st1" points="312.68,338.45 312.68,354.1 307.78,354.1 307.78,338.45 302.7,338.45 302.7,334.62 317.74,334.62 
		317.74,338.45 	"/>
	<rect x="320.88" y="334.62" class="st1" width="4.84" height="19.47"/>
	<path class="st1" d="M346.84,349.64c-1.54,2.71-4.33,5.03-8.38,5.03c-5.16,0-9.32-3.76-9.32-10.35c0-5.76,3.91-10.31,9.43-10.31
		c3.58,0,6.84,2.12,8.21,5.04l-3.85,1.94c-0.41-1.46-2.15-2.98-4.13-2.98c-3.15,0-4.81,2.93-4.81,6.18c0,4.29,2.18,6.41,4.81,6.41
		c2.53,0,3.55-1.77,4.21-2.9L346.84,349.64z"/>
	<path class="st1" d="M361.55,354.1l-0.95-3.13h-7.18l-0.97,3.13h-5.18l7.24-19.47h5.06l7.18,19.47H361.55z M356.95,339.25
		l-2.4,8.24h4.94L356.95,339.25z"/>
	<polygon class="st1" points="369.12,354.1 369.12,334.62 373.98,334.62 373.98,349.99 381.59,349.99 381.59,354.1 	"/>
	<path class="st1" d="M409.86,349.64c-1.54,2.71-4.33,5.03-8.39,5.03c-5.16,0-9.32-3.76-9.32-10.35c0-5.76,3.91-10.31,9.43-10.31
		c3.59,0,6.84,2.12,8.22,5.04l-3.86,1.94c-0.41-1.46-2.14-2.98-4.13-2.98c-3.15,0-4.8,2.93-4.8,6.18c0,4.29,2.17,6.41,4.8,6.41
		c2.53,0,3.54-1.77,4.22-2.9L409.86,349.64z"/>
	<path class="st1" d="M421.64,334.02c7.1,0,9.88,5.84,9.88,10.48c0,5.21-3.56,10.18-9.82,10.18c-6.43,0-9.67-5.05-9.67-10.4
		C412.03,339.83,414.62,334.02,421.64,334.02 M421.73,350.53c3.61,0,4.91-3.37,4.91-6.09c0-3.53-1.54-6.35-4.99-6.35
		c-3.68,0-4.83,3.51-4.83,6.13C416.82,347.34,418.23,350.53,421.73,350.53"/>
	<path class="st1" d="M452.42,354.1c0,0,0-10.75,0.11-14.57l-4.05,14.57h-4.22l-4.03-14.57c0.09,2.72,0.11,14.57,0.11,14.57h-4.75
		v-19.47h7.11l3.67,13.63l3.62-13.63h7.12v19.47H452.42z"/>
	<path class="st1" d="M471.8,334.61c4.6,0,7.03,2.19,7.03,6.66c0,4.93-4.33,6.45-7.85,6.45h-3.95v6.37h-4.9v-19.48H471.8z
		 M467.03,344.1h3.18c2.22,0,3.77-0.52,3.77-3.06c0-2.82-2.32-2.83-3.84-2.83h-3.11V344.1z"/>
	<path class="st1" d="M492.54,354.1l-0.96-3.13h-7.18l-0.98,3.13h-5.17l7.23-19.47h5.07l7.16,19.47H492.54z M487.93,339.25
		l-2.4,8.24h4.94L487.93,339.25z"/>
	<polygon class="st1" points="511.65,354.1 504.77,342.45 504.77,354.1 500.07,354.1 500.07,334.62 504.85,334.62 511.77,346.48 
		511.77,334.62 516.43,334.62 516.43,354.1 	"/>
	<rect x="522.35" y="334.62" class="st1" width="4.85" height="19.47"/>
	<polygon class="st1" points="533.17,334.62 547.57,334.62 547.57,338.4 538.03,338.4 538.03,341.94 546.92,341.94 546.92,345.62 
		538.03,345.62 538.03,350.25 548.41,350.25 548.41,354.1 533.17,354.1 	"/>
	<path class="st1" d="M564.86,340.41c-1.41-1.45-3-2.41-5.09-2.41c-1.99,0-2.89,1.14-2.89,2.07c0,1.04,0.82,1.54,2.48,1.78l2.15,0.3
		c5.06,0.71,7.17,2.26,7.17,5.6c0,4.11-3.29,6.78-8.84,6.78c-4.56,0-6.91-1.63-8.89-3.93l3.7-2.34c1.3,1.56,3.52,2.45,5.63,2.45
		c1.42,0,3.58-0.65,3.58-2.27c0-1.38-1.66-1.76-3.39-1.97l-2.23-0.3c-3.41-0.48-6.21-2.07-6.21-5.5c0-3.83,2.85-6.5,7.86-6.5
		c4.12,0,6.67,1.87,8.58,3.7L564.86,340.41z"/>
	<path class="st1" d="M123.41,390.93c7.08,0,9.88,5.83,9.88,10.47c0,5.22-3.55,10.18-9.82,10.18c-6.43,0-9.68-5.04-9.68-10.39
		C113.79,396.75,116.39,390.93,123.41,390.93 M123.5,407.44c3.61,0,4.91-3.37,4.91-6.09c0-3.53-1.55-6.34-5-6.34
		c-3.69,0-4.82,3.51-4.82,6.13C118.58,404.24,120,407.44,123.5,407.44"/>
	<polygon class="st1" points="151.69,391.54 151.69,395.28 141.61,395.28 141.61,399.36 150.89,399.36 150.89,403.15 141.61,403.15 
		141.61,411 136.75,411 136.75,391.54 	"/>
	<path class="st1" d="M181.13,376.09c0,0.35-0.83,2.01-1.89,4.95c-1.11,3.06-2.18,7.41-2.18,12.65c0,3.11,0.77,7.24,1.43,11.41
		l-1.89,2.53c-3.01-3.65-4.88-7.76-4.88-14.83c0-10.01,6.06-16.94,9.17-16.94C181.07,375.86,181.13,375.92,181.13,376.09
		 M264.92,404.14c0.36,1.01,0.54,1.85,0.54,2.67c0,0.94-0.35,1.89-1.01,1.89c-0.46,0-0.93-0.54-0.93-1.36
		C263.52,406.45,264.27,405.05,264.92,404.14 M179,408.16c0.49,3.1,0.9,6.18,0.9,8.58c0,5.65-1.89,12.24-5.12,12.19
		c-1.24,0-2.31-1.26-2.35-3.42C172.32,418.47,175.66,412.45,179,408.16 M275.93,395.31c-1.01,1.44-1.84,3.43-1.84,6.02
		c0,4.94,2.83,9.66,8.29,9.66c5.3,0,9.01-4.18,9.01-10.03c0-1.68-0.06-1.92-0.17-2.63c1.23-0.51,2.3-1.35,3.12-2
		c0.71-0.54,1.23-0.83,1.65-0.83c0.53,0,0.76,0.41,0.76,1.18v11.55c0,1.88,0.59,2.77,2.05,2.77c1.34,0,2.31-0.95,2.83-2.07
		c1.94-4.06,4.76-9.46,5.99-11.53c0.3-0.46,0.53-0.82,0.7-0.82c0.25,0,0.36,0.18,0.36,0.93v9.18c0,2.59,1.19,4.3,3.77,4.3
		c2.72,0,4.06-2.6,6.42-6.59c0.12-0.25,0.16-0.42,0.16-0.59c0-0.53-0.46-0.82-0.92-0.82c-0.55,0-0.85,0.52-2.6,2.47
		c-0.35,0.37-0.7,0.87-1.34,0.87c-0.24,0-0.42-0.28-0.42-0.64v-10.3c0-2.76-1.24-3.87-2.83-3.87c-1.28,0-2.34,0.52-3.47,2.18
		c-2,2.93-4.07,7.12-5.18,9.23c-0.12,0.24-0.29,0.58-0.41,0.58c-0.11,0-0.17-0.16-0.17-0.58v-7.54c0-2.18-0.58-3.87-2.89-3.87
		c-2.41,0-3.65,1.65-5.4,2.87c-1.12,0.82-2.12,1.41-2.89,1.79c-1.16-3-3.35-4.53-5.18-4.49c-1.83,0.06-3.12,1.17-3.12,3.06
		c0,1.94,1.18,3.28,2.76,3.88c0.88,0.36,1.7,0.42,2.9,0.42c0.35,0,0.69,0,0.92-0.06c0.14,0.58,0.08,1.42,0.08,2.05
		c0,2.91-1.71,5.78-4.89,5.78c-3.3,0-5.23-3.18-5.23-6.82c0-2.79,0.8-5.07,2.15-6.65c0.54-0.59,0.95-0.94,0.95-1.49
		c0-0.28-0.41-0.33-0.77-0.33c-2.24,0-4.7,0.99-6.41,1.87c-2.24,1.17-4.88,3.14-7.06,5.07c-1.05-2.35-2.34-4.42-3-6.01
		c-0.24-0.64-0.4-1.41-0.87-1.41c-0.4,0-0.59,0.42-0.89,1.22c-1.06,3.13-6.72,12.26-7.94,13.51c-0.11,0.16-0.29,0.35-0.34,0.35
		c-0.13,0-0.21-0.06-0.21-0.42v-10.3c0-2.76-1.12-3.87-2.63-3.87c-1.3,0-2.41,0.52-3.47,2.18c-1.95,2.93-4.31,7.24-5.42,9.36
		c-0.18,0.36-0.35,0.46-0.42,0.46c-0.05,0-0.1-0.23-0.1-0.58v-7.54c0-2.76-1.12-3.87-2.65-3.87c-1.31,0-2.53,0.47-3.54,2.18
		c-2.46,4.18-6.59,10.59-7.35,11.65c-0.11,0.17-0.24,0.29-0.34,0.35c-0.12,0-0.19-0.12-0.19-0.41v-9.89c0-2.76-1.12-3.87-2.64-3.87
		c-2.12,0-3.29,1.94-4.07,3.17c-1.07,1.71-2.46,4-3.58,6.12c-0.77,1.42-1.41,2.7-1.65,2.7c-0.11,0-0.11-0.52-0.11-1.52v-7.88
		c3.7-4.12,6-9.19,6-14.71c0-3.19-1.41-4.96-3.58-4.96c-4.07,0-7.18,6.36-7.18,13.9v6.12c-1.89,1.19-3.65,1.76-5.83,2.17
		c-1.11-3.29-3.47-4.99-5.34-4.94c-1.82,0.06-3.11,1.17-3.11,3.06c0,3.12,3.05,4.41,5.74,4.41h0.76c0.13,0.59,0.13,1.25,0.13,1.88
		c0,2.91-1.71,5.78-4.88,5.78c-3.29,0-5.24-3.18-5.24-6.82c0-2.79,0.82-5.07,2.17-6.65c0.54-0.59,0.96-1.11,0.96-1.49
		c0-0.28-0.41-0.33-0.77-0.33c-2.23,0-7.16,2.99-13.06,8.88c-0.54-4.73-1.12-9.3-1.12-13.77c0-5,1-9.25,1.23-10.49
		c0.12-0.73,0.19-1.22,0.19-1.56c0-0.48-0.25-0.72-0.88-0.72c-4.78,0-15.25,7.59-15.25,18.94c0,8.06,2.94,11.94,8.07,16.95
		c-3.11,5.01-5.6,10.94-5.6,16.24c0,3.84,0.9,6.72,3.71,6.72c5.89,0,10.3-12.24,10.3-21.3c0-2.7-0.12-5.41-0.35-8.12
		c2.18-2.31,5.52-5.41,6.34-5.71c-0.34,1.23-0.58,2.54-0.58,3.76c0,4.94,2.83,9.66,8.29,9.66c5.12,0,9-4.18,9-10.03
		c0-0.74-0.05-1.4-0.11-2.09c1.87-0.35,3.6-0.85,5.24-1.83v11.82c0,1.53,1.06,2.13,2.05,2.13c1.36,0,2.06-0.95,3.06-3.11
		c0.83-1.77,3.05-5.84,4.41-8.25c1.05-1.88,1.65-3.11,2.12-3.11c0.12,0,0.24,0.28,0.24,0.99v10.07c0,2.71,1.41,3.42,2.63,3.42
		c1.19,0,1.95-0.64,2.72-1.71c3.08-4.36,6.3-9.54,7.58-11.78c0.25-0.4,0.53-0.7,0.77-0.7c0.23,0,0.34,0.13,0.34,0.87v10.55
		c0,1.88,0.6,2.77,2.07,2.77c1.36,0,2.23-0.95,2.76-2.07c1.95-4.06,4.83-9.42,6.08-11.53c0.29-0.46,0.58-0.87,0.76-0.87
		c0.24,0,0.29,0.28,0.29,1.05v10.01c0,2.71,1.41,3.42,2.65,3.42c1.64,0,2.71-1.17,3.77-2.53c1.94-2.55,4.75-7.07,6.46-9.95
		c0.59,0.94,1.25,2.07,1.78,3.28c-1.42,1.71-2.83,3.66-2.83,5.71c0,2.18,1.54,3.49,3.11,3.49c2.7,0,5.18-2.6,5.18-6.19
		c0-1.4-0.4-2.87-0.94-4.28C270.92,398.15,273.81,395.86,275.93,395.31 M216.2,386.68c0-8.78,1.71-10.11,2.23-10.11
		c0.95,0,1.05,0.58,1.05,3.94c0,3.46-1.46,8-3.28,10.47V386.68z M199.8,395.17c0-0.54,0.34-0.83,0.81-0.83
		c0.75,0,1.88,0.83,2.53,2.46C200.97,396.8,199.8,396.34,199.8,395.17 M284.87,395.17c0-0.54,0.35-0.83,0.81-0.83
		c0.77,0,1.94,0.83,2.6,2.46c-0.25,0-0.59,0.07-0.83,0.07C286.05,396.87,284.87,396.21,284.87,395.17"/>
	<path class="st1" d="M332.29,404.92c-0.99,0.13-1.59,0.13-2.64,0.13c-2.29,0-4-0.9-4-2.18c0-0.83,0.42-1.3,1.58-1.3
		C329.11,401.57,330.64,402.87,332.29,404.92 M343.88,405.51c1.05,1.42,2.35,2.77,3.88,4.24c-3.11,5.01-5.59,10.94-5.59,16.24
		c0,3.84,0.89,6.72,3.72,6.72c5.87,0,10.3-12.24,10.3-21.3c0-2.7-0.13-5.41-0.37-8.12c2.18-2.31,5.52-5.41,6.36-5.71
		c-0.35,1.23-0.59,2.54-0.59,3.76c0,4.94,2.83,9.66,8.3,9.66c5.11,0,8.99-4.18,8.99-10.03c0-0.74-0.04-1.4-0.12-2.09
		c1.89-0.35,3.6-0.85,5.25-1.83v11.82c0,1.53,1.05,2.13,2.03,2.13c1.39,0,2.09-0.95,3.08-3.11c0.83-1.77,3.06-5.84,4.42-8.25
		c1.05-1.88,1.65-3.11,2.11-3.11c0.12,0,0.24,0.28,0.24,0.99v10.07c0,2.71,1.39,3.42,2.63,3.42c1.17,0,1.95-0.64,2.73-1.71
		c3.04-4.36,6.29-9.54,7.58-11.78c0.22-0.4,0.52-0.7,0.75-0.7c0.24,0,0.36,0.13,0.36,0.87v10.55c0,1.88,0.59,2.77,2.05,2.77
		c1.36,0,2.25-0.95,2.78-2.07c1.94-4.06,4.83-9.42,6.05-11.53c0.3-0.46,0.61-0.87,0.79-0.87c0.21,0,0.29,0.28,0.29,1.05v10.01
		c0,2.71,1.39,3.42,2.62,3.42c1.67,0,2.72-1.17,3.78-2.53c1.95-2.55,4.76-7.07,6.47-9.95c0.59,0.94,1.25,2.07,1.78,3.28
		c-1.44,1.71-2.82,3.66-2.82,5.71c0,2.18,1.52,3.49,3.11,3.49c2.7,0,5.15-2.6,5.15-6.19c0-1.4-0.38-2.87-0.93-4.28
		c2.41-2.38,5.31-4.66,7.43-5.21c-1.01,1.44-1.83,3.43-1.83,6.02c0,4.94,2.83,9.66,8.28,9.66c5.31,0,9-4.18,9-10.03
		c0-1.68-0.06-1.92-0.16-2.63c1.24-0.51,2.3-1.35,3.13-2c0.7-0.54,1.23-0.83,1.63-0.83c0.54,0,0.77,0.41,0.77,1.18v11.55
		c0,1.88,0.59,2.77,2.06,2.77c1.36,0,2.31-0.95,2.83-2.07c1.93-4.06,4.75-9.46,5.99-11.53c0.33-0.46,0.54-0.82,0.72-0.82
		c0.24,0,0.36,0.18,0.36,0.93v9.18c0,2.59,1.16,4.3,3.76,4.3c2.69,0,4.08-2.6,6.42-6.59c0.11-0.25,0.17-0.42,0.17-0.59
		c0-0.53-0.47-0.82-0.94-0.82c-0.54,0-0.83,0.52-2.6,2.47c-0.36,0.37-0.71,0.87-1.33,0.87c-0.25,0-0.42-0.28-0.42-0.64v-10.3
		c0-2.76-1.24-3.87-2.83-3.87c-1.29,0-2.35,0.52-3.47,2.18c-2.01,2.93-4.05,7.12-5.18,9.23c-0.13,0.24-0.28,0.58-0.42,0.58
		c-0.13,0-0.16-0.16-0.16-0.58v-7.54c0-2.18-0.59-3.87-2.9-3.87c-2.42,0-3.65,1.65-5.4,2.87c-1.12,0.82-2.13,1.41-2.9,1.79
		c-1.16-3-3.35-4.53-5.16-4.49c-1.83,0.06-3.13,1.17-3.13,3.06c0,1.94,1.19,3.28,2.76,3.88c0.89,0.36,1.71,0.42,2.9,0.42
		c0.34,0,0.69,0,0.93-0.06c0.12,0.58,0.07,1.42,0.07,2.05c0,2.91-1.72,5.78-4.9,5.78c-3.28,0-5.21-3.18-5.21-6.82
		c0-2.79,0.83-5.07,2.16-6.65c0.53-0.59,0.94-0.94,0.94-1.49c0-0.28-0.41-0.33-0.75-0.33c-2.24,0-4.7,0.99-6.42,1.87
		c-2.24,1.17-4.89,3.14-7.07,5.07c-1.05-2.35-2.32-4.42-2.99-6.01c-0.24-0.64-0.41-1.41-0.89-1.41c-0.41,0-0.59,0.42-0.87,1.22
		c-1.07,3.13-6.72,12.26-7.95,13.51c-0.12,0.16-0.29,0.35-0.36,0.35c-0.1,0-0.16-0.06-0.16-0.42v-10.3c0-2.76-1.12-3.87-2.65-3.87
		c-1.31,0-2.41,0.52-3.49,2.18c-1.93,2.93-4.29,7.24-5.4,9.36c-0.17,0.36-0.36,0.46-0.4,0.46c-0.08,0-0.13-0.23-0.13-0.58v-7.54
		c0-2.76-1.11-3.87-2.65-3.87c-1.29,0-2.55,0.47-3.52,2.18c-2.48,4.18-6.6,10.59-7.36,11.65c-0.11,0.17-0.22,0.29-0.35,0.35
		c-0.11,0-0.17-0.12-0.17-0.41v-9.89c0-2.76-1.13-3.87-2.66-3.87c-2.12,0-3.29,1.94-4.06,3.17c-1.06,1.71-2.47,4-3.59,6.12
		c-0.76,1.42-1.41,2.7-1.63,2.7c-0.13,0-0.13-0.52-0.13-1.52v-7.88c3.71-4.12,6.02-9.19,6.02-14.71c0-3.19-1.43-4.96-3.6-4.96
		c-4.05,0-7.17,6.36-7.17,13.9v6.12c-1.9,1.19-3.66,1.76-5.84,2.17c-1.11-3.29-3.47-4.99-5.33-4.94c-1.84,0.06-3.13,1.17-3.13,3.06
		c0,3.12,3.04,4.41,5.76,4.41h0.77c0.12,0.59,0.12,1.25,0.12,1.88c0,2.91-1.72,5.78-4.89,5.78c-3.28,0-5.22-3.18-5.22-6.82
		c0-2.79,0.84-5.07,2.17-6.65c0.54-0.59,0.95-1.11,0.95-1.49c0-0.28-0.41-0.33-0.76-0.33c-2.23,0-7.19,2.99-13.07,8.88
		c-0.52-4.73-1.11-9.3-1.11-13.77c0-5,1-9.25,1.26-10.49c0.09-0.73,0.16-1.22,0.16-1.56c0-0.48-0.23-0.72-0.88-0.72
		c-4.77,0-15.23,7.59-15.23,18.94c0,4.63,0.99,7.94,2.75,10.83c-0.64-0.12-1.16-0.12-1.64-0.12c-1.89,0-3.65,0.47-4.76,0.72v-1.18
		c0-2.53-0.59-6.01-1.67-7.19c-0.12-0.12-0.28-0.19-0.46-0.19c-0.48,0-1.05,0.24-1.7,0.59c-0.72,0.36-1.42,0.72-1.42,0.94
		c0,0.13,0,0.23,0.18,0.54c0.41,0.58,1.53,1.75,1.93,4.52c-2-1.99-4.29-2.89-7.28-2.89c-3.52,0-4.59,1.58-4.59,3.19
		c0,3.06,4.05,4.6,9.18,4.6c0.94,0,2-0.18,3.06-0.43c0,0.94,0.11,1.78,0.11,2.48c0,1.01,0.17,1.78,0.83,1.78c1,0,1.59-2,1.68-4.88
		c1.84-0.48,3.71-0.88,5.33-0.88C342.01,405.23,342.94,405.34,343.88,405.51 M353.69,376.09c0,0.35-0.8,2.01-1.88,4.95
		c-1.11,3.06-2.17,7.41-2.17,12.65c0,3.11,0.79,7.24,1.41,11.41l-1.89,2.53c-3-3.65-4.87-7.76-4.87-14.83
		c0-10.01,6.06-16.94,9.17-16.94C353.65,375.86,353.69,375.92,353.69,376.09 M437.49,404.14c0.38,1.01,0.54,1.85,0.54,2.67
		c0,0.94-0.36,1.89-1.01,1.89c-0.46,0-0.95-0.54-0.95-1.36C436.07,406.45,436.85,405.05,437.49,404.14 M351.59,408.16
		c0.47,3.1,0.87,6.18,0.87,8.58c0,5.65-1.86,12.24-5.1,12.19c-1.25,0-2.3-1.26-2.37-3.42C344.88,418.47,348.24,412.45,351.59,408.16
		 M388.77,386.68c0-8.78,1.69-10.11,2.24-10.11c0.93,0,1.05,0.58,1.05,3.94c0,3.46-1.46,8-3.29,10.47V386.68z M372.37,395.17
		c0-0.54,0.36-0.83,0.81-0.83c0.76,0,1.9,0.83,2.53,2.46C373.53,396.8,372.37,396.34,372.37,395.17 M457.44,395.17
		c0-0.54,0.35-0.83,0.83-0.83c0.75,0,1.93,0.83,2.58,2.46c-0.23,0-0.59,0.07-0.83,0.07C458.61,396.87,457.44,396.21,457.44,395.17"
		/>
</g>
</svg>
