<?xml version="1.0" encoding="utf-8"?>
<!-- Generator: Adobe Illustrator 27.1.1, SVG Export Plug-In . SVG Version: 6.00 Build 0)  -->
<svg version="1.1" id="Layer_1" xmlns="http://www.w3.org/2000/svg" xmlns:xlink="http://www.w3.org/1999/xlink" x="0px" y="0px"
	 viewBox="0 0 1065.63 754.89" style="enable-background:new 0 0 1065.63 754.89;" xml:space="preserve">
<style type="text/css">
	.st0{fill:none;stroke:#74149B;stroke-width:3.0329;stroke-miterlimit:10;}
</style>
<g>
	<path class="st0" d="M47.93,754.89H0.58V535.87c0-1.53,1.24-2.78,2.78-2.78h41.79c1.53,0,2.78,1.24,2.78,2.78V754.89z"/>
	<path class="st0" d="M101.32,754.89H53.98V415.67c0-2.09,1.7-3.79,3.79-3.79h39.76c2.09,0,3.79,1.7,3.79,3.79V754.89z"/>
	<path class="st0" d="M154.72,754.89h-47.35V549.17c0-1.46,1.18-2.64,2.64-2.64h42.06c1.46,0,2.64,1.18,2.64,2.64V754.89z"/>
	<path class="st0" d="M208.11,754.89h-47.35V337.62c0-2.39,1.93-4.32,4.32-4.32h38.7c2.39,0,4.32,1.93,4.32,4.32V754.89z"/>
	<path class="st0" d="M261.51,754.89h-47.35V202.38c0-2.82,2.29-5.11,5.11-5.11h37.12c2.82,0,5.11,2.29,5.11,5.11V754.89z"/>
	<path class="st0" d="M421.69,754.89h-47.35V213.7c0-2.79,2.26-5.05,5.05-5.05h37.24c2.79,0,5.05,2.26,5.05,5.05V754.89z"/>
	<path class="st0" d="M475.09,754.89h-47.35V233.26c0-2.73,2.21-4.94,4.94-4.94h37.46c2.73,0,4.94,2.21,4.94,4.94V754.89z"/>
	<path class="st0" d="M528.48,754.89h-47.35V260.53c0-2.64,2.14-4.79,4.79-4.79h37.77c2.64,0,4.79,2.14,4.79,4.79V754.89z"/>
	<path class="st0" d="M581.88,754.89h-47.35V377.92c0-2.24,1.82-4.06,4.06-4.06h39.23c2.24,0,4.06,1.82,4.06,4.06V754.89z"/>
	<path class="st0" d="M635.27,754.89h-47.35V423.33c0-2.06,1.67-3.73,3.73-3.73h39.88c2.06,0,3.73,1.67,3.73,3.73V754.89z"/>
	<path class="st0" d="M687.96,754.89h-47.35V276.26c0-2.59,2.1-4.7,4.7-4.7h37.95c2.59,0,4.7,2.1,4.7,4.7V754.89z"/>
	<path class="st0" d="M741.35,754.89h-47.35V251.02c0-2.67,2.17-4.84,4.84-4.84h37.66c2.67,0,4.84,2.17,4.84,4.84V754.89z"/>
	<path class="st0" d="M794.75,754.89H747.4V81.84c0-3.16,2.56-5.73,5.73-5.73h35.89c3.16,0,5.73,2.56,5.73,5.73V754.89z"/>
	<path class="st0" d="M901.54,754.89h-47.35V229.77c0-2.74,2.22-4.96,4.96-4.96h37.42c2.74,0,4.96,2.22,4.96,4.96V754.89z"/>
	<path class="st0" d="M848.14,754.89H800.8V423.38c0-2.06,1.67-3.73,3.73-3.73h39.88c2.06,0,3.73,1.67,3.73,3.73V754.89z"/>
	<path class="st0" d="M954.93,754.89h-47.35V366.5c0-2.28,1.85-4.13,4.13-4.13h39.08c2.28,0,4.13,1.85,4.13,4.13V754.89z"/>
	<path class="st0" d="M1008.33,754.89h-47.35V551.55c0-1.45,1.17-2.62,2.62-2.62h42.11c1.45,0,2.62,1.17,2.62,2.62V754.89z"/>
	<path class="st0" d="M1061.72,754.89h-47.35V444.24c0-1.98,1.6-3.58,3.58-3.58h40.19c1.98,0,3.58,1.6,3.58,3.58V754.89z"/>
	<path class="st0" d="M368.3,754.89h-47.35V35.31c0-3.28,2.66-5.95,5.95-5.95h35.45c3.28,0,5.95,2.66,5.95,5.95V754.89z"/>
	<path class="st0" d="M314.9,754.89h-47.35V395.27c0-2.17,1.76-3.94,3.94-3.94h39.47c2.17,0,3.94,1.76,3.94,3.94V754.89z"/>
</g>
</svg>
