<?xml version="1.0" encoding="utf-8"?>
<!-- Generator: Adobe Illustrator 27.1.1, SVG Export Plug-In . SVG Version: 6.00 Build 0)  -->
<svg version="1.1" id="Layer_1" xmlns="http://www.w3.org/2000/svg" xmlns:xlink="http://www.w3.org/1999/xlink" x="0px" y="0px"
	 viewBox="0 0 287.99 287.57" style="enable-background:new 0 0 287.99 287.57;" xml:space="preserve">
<style type="text/css">
	.st0{fill:#202020;}
</style>
<path class="st0" d="M0,0v287.57h287.99V0H0z M285.73,285.52H2.26V2.06h283.47L285.73,285.52L285.73,285.52z"/>
<g>
	<g>
		<path class="st0" d="M64.36,237.66c0,10.88-8.4,18.78-18.89,18.78c-10.69,0-18.89-7.99-18.89-18.39
			c0-10.89,8.39-18.78,18.89-18.78C56.17,219.27,64.36,227.27,64.36,237.66L64.36,237.66L64.36,237.66z M58.36,237.86
			c0-9.89-4.8-16.79-12.89-16.79c-8.79,0-12.9,8.29-12.9,16.79c0,9.89,4.8,16.78,12.9,16.78C54.27,254.64,58.36,246.36,58.36,237.86
			L58.36,237.86L58.36,237.86z"/>
		<path class="st0" d="M179.69,237.66c0,10.88-8.4,18.78-18.89,18.78c-10.7,0-18.89-7.99-18.89-18.39c0-10.89,8.4-18.78,18.89-18.78
			C171.5,219.27,179.69,227.27,179.69,237.66L179.69,237.66L179.69,237.66z M173.7,237.86c0-9.89-4.8-16.79-12.89-16.79
			c-8.79,0-12.89,8.29-12.89,16.79c0,9.89,4.8,16.78,12.89,16.78C169.6,254.64,173.7,246.36,173.7,237.86L173.7,237.86L173.7,237.86
			z"/>
		<path class="st0" d="M194.28,238.05h4.5c6.8,0,8.3-4.29,8.3-8.39c0-3.1-1.4-6-4.6-7.39c-1.7-0.7-3.3-0.7-5.5-0.7h-2.7
			L194.28,238.05L194.28,238.05z M202.58,243.85c-2.1-3-2.9-4.09-5.5-4.09h-2.8v12.19c0,1,0.4,1.49,1.5,1.7l4.1,0.9v1.31h-16.09
			v-1.31l3.7-0.9c1.1-0.29,1.5-0.7,1.5-1.7v-28.18c0-1-0.4-1.4-1.5-1.7l-3.7-0.9v-1.3h15.69c3.3,0,5.6,0.3,7.5,1
			c3.9,1.5,6.1,5.21,6.1,8.7c0,4.4-3.3,8.11-8.79,9.39v0.2c1.1,0.51,1.7,1.21,5.6,6.31l4.9,6.49c0.7,1,1.6,1.59,2.7,1.8l3.6,0.79
			v1.31h-8.59c-1,0-1.5-0.31-2.4-1.51L202.58,243.85L202.58,243.85z"/>
		<path class="st0" d="M132.12,232.16h1.5v11.99h-1.5l-0.9-3.6c-0.3-1.3-1.1-1.8-2.3-1.8h-8.7v13.19c0,1,0.4,1.49,1.5,1.7l4.1,0.9
			v1.31h-16.09v-1.31l3.7-0.9c1.1-0.29,1.5-0.7,1.5-1.7v-28.18c0-1-0.4-1.4-1.5-1.7l-3.7-0.9v-1.3h27.18v9h-1.5l-1.7-5.4
			c-0.4-1.4-1-1.9-2.2-1.9h-11.29v15.49h8.7c1.2,0,1.9-0.49,2.3-1.8L132.12,232.16L132.12,232.16z"/>
		<path class="st0" d="M223.96,255.85v-1.31l3.7-0.9c1.1-0.29,1.5-0.7,1.5-1.7v-28.18c0-1-0.4-1.4-1.5-1.7l-3.7-0.9v-1.3h16.89
			c4.6,0,7.9,0.6,10.59,1.8c6.79,3.1,9.9,9.79,9.9,16.39c0,6.4-2.4,12.39-8.5,15.59c-2.8,1.51-6.7,2.2-11.79,2.2L223.96,255.85
			L223.96,255.85z M234.46,221.57v30.98c0,1.31,0.3,1.61,1.6,1.61h4.4c4.2,0,7.29-0.61,9.49-2.21c3.7-2.7,5.4-7.59,5.4-13.79
			c0-6.1-1.7-12.09-6.7-14.99c-2.1-1.2-4.8-1.6-9-1.6H234.46L234.46,221.57z"/>
		<path class="st0" d="M78.45,254.54v1.31H65.76v-1.31l3.19-0.79c1.21-0.31,2-0.7,2.8-1.6l11-13.79l-11-14.59
			c-0.7-1-1.59-1.5-2.7-1.8l-3-0.8v-1.3h15.79v1.3l-3.39,0.7c-1.2,0.2-0.9,0.7-0.31,1.5l8.1,11.59h0.2l8.3-11.59
			c0.6-0.8,0.8-1.1-0.3-1.4l-3.2-0.8v-1.3h12.69v1.3l-3.2,0.8c-1.2,0.3-2,0.7-2.8,1.6l-10.39,13.1l11.59,15.28
			c0.7,1,1.6,1.49,2.7,1.8l3,0.79v1.31H89.05v-1.31l3.4-0.7c1.2-0.2,1-0.59,0.4-1.41l-8.79-12.39h-0.2l-8.89,12.31
			c-0.6,0.8-0.8,1.09,0.3,1.39L78.45,254.54L78.45,254.54z"/>
	</g>
	<path class="st0" d="M40.6,202.93c-0.99,0.99-2.49,1.66-4.56,1.66c-1.81,0-3.49-0.57-4.63-1.71c-1.55-1.55-1.48-3.53-1.48-5.65
		v-10.01h2.04v10.75c0,1.36-0.04,2.69,1.01,3.74c0.73,0.73,1.85,1.12,3.14,1.12c1.26,0,2.27-0.43,2.9-1.07
		c1.17-1.17,1.1-2.44,1.1-5.52v-9.02h2.01v8.49C42.12,198.94,42.25,201.28,40.6,202.93z"/>
	<path class="st0" d="M58.71,204.27L50.5,190.3l0.05,13.97h-1.88v-17.04h2.09L59,201.27l-0.05-14.05h1.88v17.04H58.71z"/>
	<path class="st0" d="M67.94,204.27v-17.04h2.05v17.04H67.94z"/>
	<path class="st0" d="M82.74,204.27h-2.35l-5.88-17.04h2.14l4.97,15.05l5.12-15.05h1.98L82.74,204.27z"/>
	<path class="st0" d="M93.36,204.27v-17.04h9.26v1.7h-7.26v5.62h6.81v1.66h-6.81v6.31h7.46v1.75L93.36,204.27L93.36,204.27z"/>
	<path class="st0" d="M115.79,189.79c-0.98-0.98-2.25-0.93-3.63-0.93h-1.89v6.36h0.68c1.72,0,3.57,0.09,4.74-1.08
		c0.57-0.57,0.88-1.36,0.88-2.22C116.57,190.96,116.19,190.19,115.79,189.79z M117.65,204.27l-1.96-4.42
		c-1.21-2.72-1.77-2.99-4.24-2.99h-1.19v7.41h-2.01v-17.04h3.68c2.27,0,3.99-0.02,5.33,1.33c0.85,0.85,1.33,1.99,1.33,3.41
		c0,1.18-0.34,2.17-1.06,2.93c-0.61,0.65-1.63,1.23-2.73,1.35c0.6,0.04,1.1,0.36,1.42,0.68c0.46,0.46,0.8,1.17,1.3,2.28l2.26,5.07
		H117.65z"/>
	<path class="st0" d="M139.7,204.27v-17.04h2.05v17.04H139.7z"/>
	<path class="st0" d="M153.45,188.92v15.34h-2.05v-15.34h-5.07v-1.7h12.17v1.7H153.45z"/>
	<path class="st0" d="M168.31,197.53v6.74h-2.02v-6.74l-5.41-10.31h2.34l4.2,7.99l4.08-7.99l2.22,0L168.31,197.53z"/>
	<path class="st0" d="M192.84,188.64c-3.34,0-5.51,2.82-5.51,7.07c0,4.24,2.41,7.12,5.62,7.12c3.56,0,5.54-3.03,5.54-7.25
		C198.49,191.42,196.15,188.64,192.84,188.64z M192.84,204.59c-4.41,0-7.64-3.64-7.64-8.77c0-5.26,3.19-8.92,7.79-8.92
		c4.46,0,7.61,3.62,7.61,8.76C200.61,200.94,197.46,204.59,192.84,204.59z"/>
	<path class="st0" d="M208.25,188.92v5.62h6.59v1.66h-6.59v8.06h-2.04v-17.04h9.05v1.7H208.25z"/>
	<path class="st0" d="M123.92,191.38c0-2.62,2.11-4.48,5.19-4.48c3.12,0,4.61,1.61,4.76,1.77l-1,1.21c-0.38-0.29-1.75-1.3-3.63-1.3
		c-2.18,0-3.38,1.14-3.38,2.68c0,0.75,0.31,1.28,0.8,1.73c0.58,0.52,1.44,0.91,2.36,1.34c1.14,0.52,2.71,1.12,3.76,2.21
		c0.73,0.75,1.27,1.73,1.27,3.07c0,2.84-1.97,4.99-5.51,4.99c-3.01,0-4.92-1.66-5.1-1.83l0.94-1.38c0.48,0.36,2.38,1.48,4.11,1.48
		c2.56,0,3.52-1.4,3.52-3.1c0-0.79-0.36-1.42-0.89-1.93c-0.8-0.77-2-1.28-3.15-1.8c-1.15-0.52-2.25-1.07-3.03-1.89
		C124.43,193.61,123.92,192.72,123.92,191.38z"/>
</g>
<path class="st0" d="M224.63,68.14c0,0,0,23.91,0,25.47c-1.52,0-18.45,0-18.45,0l-0.21,0.52c-0.32,0.79-0.9,1.53-2.91,1.53
	c-2.01,0-2.59-0.74-2.91-1.53l-0.21-0.52c0,0-16.9,0-18.42,0c0-1.56,0-25.47,0-25.47h-1.67v0.78l-1.6-0.49
	c-0.18-0.63-0.76-1.09-1.45-1.09c-0.84,0-1.52,0.68-1.52,1.52c0,0.84,0.68,1.52,1.52,1.52c0.37,0,0.7-0.14,0.96-0.35l2.09,0.64v2.05
	l-1.57-0.28c-0.23-0.54-0.77-0.92-1.4-0.92c-0.84,0-1.52,0.68-1.52,1.52c0,0.84,0.68,1.52,1.52,1.52c0.43,0,0.82-0.18,1.1-0.47
	l1.87,0.33v2.09l-1.64-0.07c-0.26-0.44-0.74-0.74-1.3-0.74c-0.84,0-1.52,0.68-1.52,1.52c0,0.84,0.68,1.52,1.52,1.52
	c0.51,0,0.95-0.25,1.23-0.63l1.71,0.08v2.27l-1.68,0.06c-0.27-0.39-0.72-0.64-1.23-0.64c-0.84,0-1.52,0.68-1.52,1.52
	c0,0.84,0.68,1.52,1.52,1.52c0.55,0,1.02-0.29,1.29-0.73l1.62-0.06v2.09l-1.83,0.32c-0.28-0.29-0.67-0.48-1.1-0.48
	c-0.84,0-1.52,0.68-1.52,1.52s0.68,1.52,1.52,1.52c0.62,0,1.16-0.38,1.39-0.91l1.55-0.27v2.05l-2,0.61
	c-0.26-0.22-0.59-0.35-0.96-0.35c-0.84,0-1.52,0.68-1.52,1.52c0,0.84,0.68,1.52,1.52,1.52c0.69,0,1.26-0.46,1.45-1.09l1.51-0.46
	v1.99l-2.21,0.96c-0.24-0.16-0.52-0.25-0.83-0.25c-0.84,0-1.52,0.68-1.52,1.52c0,0.84,0.68,1.52,1.52,1.52
	c0.75,0,1.36-0.54,1.49-1.25l1.56-0.67v1.81c0,0,18.18,0,19.06,0c0.77,1.35,2.11,2.05,4.15,2.05s3.37-0.7,4.15-2.05
	c0.88,0,19.09,0,19.09,0V68.14H224.63z"/>
<g>
	<ellipse class="st0" cx="190.52" cy="60.99" rx="6.98" ry="1.34"/>
	<path class="st0" d="M200.13,51.29l-4.03,2.83l-0.03,0.29l0.96,0.43c0.19,0.1,0.19,0.25,0.1,0.34l-2.53,2.13l-0.24-0.02l-1.79-2.64
		c-0.12-0.17-0.08-0.34,0.14-0.38l1.2-0.2v-0.3l-3.12-4.4h-0.51l-3.12,4.4v0.3l1.2,0.2c0.22,0.04,0.26,0.21,0.14,0.38l-1.79,2.64
		l-0.24,0.02l-2.36-2.13c-0.1-0.09-0.1-0.24,0.09-0.34l0.96-0.43l-0.04-0.29l-4.19-2.83l-0.34,0.13l2.46,7.52
		c1.25-0.56,4.12-0.96,7.48-0.97c3.36,0.02,6.23,0.41,7.48,0.97l2.46-7.52L200.13,51.29z"/>
</g>
<g>
	<ellipse class="st0" cx="203.03" cy="111.44" rx="6.98" ry="1.34"/>
	<path class="st0" d="M212.64,101.75l-4.03,2.83l-0.03,0.29l0.96,0.43c0.19,0.1,0.19,0.25,0.1,0.34l-2.53,2.14l-0.24-0.02
		l-1.79-2.64c-0.12-0.17-0.08-0.34,0.14-0.38l1.2-0.2v-0.3l-3.12-4.41h-0.51l-3.12,4.41v0.3l1.2,0.2c0.21,0.04,0.26,0.21,0.14,0.38
		l-1.79,2.64l-0.24,0.02l-2.36-2.14c-0.1-0.09-0.1-0.24,0.09-0.34l0.96-0.43l-0.04-0.29l-4.19-2.83l-0.34,0.13l2.46,7.52
		c1.25-0.56,4.12-0.96,7.48-0.97c3.36,0.02,6.23,0.41,7.48,0.97l2.46-7.52L212.64,101.75z"/>
</g>
<g>
	<ellipse class="st0" cx="215.51" cy="60.99" rx="6.98" ry="1.34"/>
	<path class="st0" d="M225.12,51.29l-4.03,2.83l-0.03,0.29l0.96,0.43c0.19,0.1,0.19,0.25,0.1,0.34l-2.53,2.13l-0.24-0.02l-1.79-2.64
		c-0.12-0.17-0.08-0.34,0.14-0.38l1.2-0.2v-0.3l-3.12-4.4h-0.51l-3.12,4.4v0.3l1.2,0.2c0.22,0.04,0.26,0.21,0.14,0.38l-1.79,2.64
		l-0.24,0.02l-2.36-2.16c-0.1-0.09-0.1-0.24,0.09-0.34l0.96-0.4l-0.04-0.29l-4.19-2.83l-0.34,0.13l2.46,7.52
		c1.25-0.56,4.12-0.96,7.48-0.97c3.36,0.02,6.23,0.41,7.48,0.97l2.46-7.52L225.12,51.29z"/>
</g>
<g>
	<path class="st0" d="M202.21,71.92c0-2.14-0.73-3.87-2.29-4.79c-0.98-0.58-2.31-0.77-3.95-0.77l-11.93,0v24.1h12.99
		c2.99,0,4.76,0.67,4.91,3.36h0.29L202.21,71.92z M193.45,73.43c0.26-0.02,0.35-0.07,0.39-0.27c0.03-0.16,0.06-0.45,0.09-0.93
		l0.06-1.07c0.04-0.67-0.01-0.73-0.43-0.76v-0.21h1.25l0.93,2.1l0.81-2.1h1.29v0.21c-0.4,0.04-0.43,0.06-0.41,0.62l0.05,1.78
		c0.02,0.59,0.03,0.61,0.41,0.64v0.21h-1.66v-0.21c0.4-0.04,0.41-0.05,0.41-0.64l-0.02-1.87h-0.02l-1.02,2.66h-0.29l-0.97-2.47
		h-0.01l-0.04,1.18c-0.02,0.46-0.01,0.71,0.01,0.88c0.02,0.2,0.14,0.25,0.48,0.27v0.21h-1.31L193.45,73.43L193.45,73.43z
		 M196.46,78.65l-0.08-0.04c-0.43-0.2-0.93-0.48-0.93-1.05c0-0.6,0.44-1.09,1.27-1.09c0.16,0,0.34,0.02,0.49,0.06
		c0.12,0.03,0.21,0.05,0.27,0.07c0.02,0.21,0.06,0.47,0.12,0.83l-0.23,0.04c-0.12-0.35-0.3-0.73-0.72-0.73
		c-0.27,0-0.46,0.21-0.46,0.46c0,0.26,0.21,0.42,0.55,0.57l0.12,0.05c0.49,0.22,0.91,0.49,0.91,1.11c0,0.65-0.52,1.13-1.35,1.13
		c-0.21,0-0.43-0.04-0.57-0.09c-0.16-0.05-0.27-0.1-0.33-0.13c-0.04-0.25-0.11-0.53-0.18-0.89l0.23-0.07
		c0.11,0.31,0.43,0.9,0.95,0.9c0.27,0,0.49-0.18,0.49-0.53C196.99,78.98,196.78,78.8,196.46,78.65z M192.96,77.04
		c0.1,0.3,0.51,1.34,0.71,1.86c0.16-0.45,0.5-1.47,0.59-1.72c0.11-0.32,0.08-0.38-0.16-0.41l-0.16-0.02v-0.21h1.29v0.21
		c-0.3,0.04-0.38,0.06-0.59,0.55c-0.03,0.07-0.68,1.65-1.08,2.74h-0.41c-0.37-0.96-0.87-2.27-1.06-2.77
		c-0.18-0.46-0.28-0.48-0.54-0.51v-0.21h1.72v0.21l-0.18,0.02C192.9,76.81,192.9,76.86,192.96,77.04z M191.42,70.11
		c0.97,0,1.72,0.71,1.72,1.76c0,1.14-0.78,1.85-1.79,1.85c-1.07,0-1.77-0.78-1.77-1.76C189.58,71.1,190.16,70.11,191.42,70.11z
		 M185.52,73.64v-0.21c0.39-0.03,0.43-0.07,0.43-0.64v-1.75c0-0.57-0.04-0.61-0.39-0.64v-0.21h1.55c0.65,0,1.2,0.13,1.55,0.47
		c0.25,0.24,0.46,0.63,0.46,1.09c0,1.32-1,1.89-2.23,1.89H185.52z M189.05,83.14c-0.37,0.03-0.41,0.07-0.41,0.64v1.75
		c0,0.57,0.04,0.61,0.41,0.64v0.21h-1.72v-0.2c0.37-0.03,0.41-0.07,0.41-0.64v-1.75c0-0.57-0.04-0.61-0.41-0.64v-0.21h1.72V83.14z
		 M189.14,80.01h-1.32v-0.21c0.23-0.01,0.37-0.08,0.4-0.27c0.02-0.17,0.04-0.46,0.04-1.01v-0.98c0-0.39-0.01-0.46-0.12-0.61
		c-0.08-0.11-0.21-0.15-0.4-0.16v-0.21h1.17l1.77,2.21h0.01v-0.71c0-0.56-0.02-0.85-0.04-1.01c-0.03-0.19-0.17-0.25-0.52-0.27v-0.21
		h1.35v0.21c-0.27,0.01-0.4,0.08-0.43,0.27c-0.02,0.16-0.04,0.46-0.04,1.01v2h-0.46l-1.96-2.51h-0.01v0.98
		c0,0.56,0.02,0.85,0.04,1.01c0.03,0.19,0.17,0.25,0.52,0.27L189.14,80.01L189.14,80.01z M192.03,86.39h-2.63v-0.21
		c0.4-0.03,0.45-0.07,0.45-0.64v-1.75c0-0.57-0.04-0.61-0.4-0.64v-0.21h1.73v0.21c-0.38,0.03-0.43,0.07-0.43,0.64v1.82
		c0,0.28,0.01,0.41,0.11,0.46c0.09,0.04,0.21,0.05,0.37,0.05c0.17,0,0.4-0.01,0.51-0.15c0.09-0.1,0.18-0.24,0.26-0.53l0.23,0.04
		C192.19,85.67,192.08,86.22,192.03,86.39z M195,86.39h-2.63v-0.21c0.4-0.03,0.45-0.07,0.45-0.64v-1.75c0-0.57-0.04-0.61-0.4-0.64
		v-0.21h1.73v0.21c-0.38,0.03-0.43,0.07-0.43,0.64v1.82c0,0.28,0.01,0.41,0.11,0.46c0.09,0.04,0.21,0.05,0.37,0.05
		c0.17,0,0.4-0.01,0.51-0.15c0.09-0.1,0.18-0.24,0.26-0.53l0.23,0.04C195.16,85.67,195.04,86.22,195,86.39z M198.32,83.14
		c-0.3,0.04-0.38,0.06-0.59,0.55c-0.03,0.07-0.68,1.65-1.08,2.74h-0.41c-0.37-0.96-0.87-2.27-1.06-2.77
		c-0.18-0.46-0.28-0.48-0.54-0.51v-0.21h1.72v0.21l-0.18,0.02c-0.2,0.02-0.2,0.07-0.14,0.25c0.1,0.3,0.52,1.34,0.71,1.86
		c0.16-0.45,0.51-1.47,0.59-1.72c0.11-0.32,0.08-0.38-0.16-0.41l-0.16-0.02v-0.21h1.29L198.32,83.14L198.32,83.14z M199.97,70.39
		c-0.37,0.03-0.41,0.07-0.41,0.64v1.75c0,0.57,0.04,0.61,0.41,0.64v0.21h-1.72v-0.21c0.37-0.03,0.41-0.07,0.41-0.64v-1.75
		c0-0.57-0.04-0.61-0.41-0.64v-0.21h1.72V70.39z"/>
	<path class="st0" d="M187.11,70.45c-0.12,0-0.19,0.02-0.23,0.04c-0.03,0.01-0.03,0.13-0.03,0.26v2.04c0,0.47,0.12,0.56,0.37,0.56
		c0.46,0,0.92-0.5,0.92-1.44C188.14,70.77,187.56,70.45,187.11,70.45z"/>
	<path class="st0" d="M191.45,73.44c0.46,0,0.71-0.44,0.71-1.4c0-1.07-0.38-1.66-0.84-1.66c-0.41,0-0.75,0.47-0.75,1.4
		C190.57,72.74,190.93,73.44,191.45,73.44z"/>
</g>
<g>
	<polygon class="st0" points="216.82,84.01 216.49,85.03 217.17,85.03 216.84,84.01 	"/>
	<polygon class="st0" points="218.07,71.26 217.74,72.28 218.42,72.28 218.09,71.26 	"/>
	<path class="st0" d="M215.1,78.15c0,0.96,0.36,1.66,0.88,1.66c0.46,0,0.71-0.44,0.71-1.4c0-1.07-0.38-1.66-0.84-1.66
		C215.44,76.76,215.1,77.22,215.1,78.15z"/>
	<path class="st0" d="M210.12,66.36c-1.64,0-2.97,0.19-3.95,0.77c-1.57,0.92-2.29,2.65-2.29,4.79l0,21.9h0.29
		c0.15-2.68,1.91-3.36,4.91-3.36h13.07v-24.1L210.12,66.36z M212.92,70.18h1.17l1.77,2.21h0.01v-0.71c0-0.56-0.02-0.85-0.04-1.01
		c-0.03-0.18-0.17-0.25-0.52-0.27v-0.21h1.35v0.21c-0.27,0.01-0.4,0.08-0.43,0.27c-0.02,0.17-0.04,0.46-0.04,1.01v2h-0.46
		l-1.96-2.51h-0.01v0.98c0,0.56,0.02,0.85,0.04,1.01c0.03,0.19,0.17,0.25,0.52,0.27v0.21H213v-0.21c0.23-0.01,0.37-0.08,0.4-0.27
		c0.02-0.16,0.04-0.46,0.04-1.01v-0.98c0-0.39-0.01-0.46-0.12-0.61c-0.08-0.11-0.21-0.15-0.4-0.17L212.92,70.18L212.92,70.18z
		 M217.67,78.24c0,1.14-0.77,1.85-1.79,1.85c-1.07,0-1.77-0.78-1.77-1.76c0-0.86,0.57-1.85,1.84-1.85
		C216.92,76.48,217.67,77.19,217.67,78.24z M213.67,79.81v0.21h-1.72v-0.21c0.37-0.03,0.41-0.07,0.41-0.64v-1.75
		c0-0.57-0.04-0.61-0.41-0.64v-0.21h1.72v0.21c-0.37,0.03-0.41,0.07-0.41,0.64v1.75C213.26,79.74,213.3,79.77,213.67,79.81z
		 M210.93,73.43c0.37-0.03,0.41-0.07,0.41-0.64v-1.75c0-0.57-0.04-0.61-0.41-0.64v-0.21h1.72v0.21c-0.37,0.03-0.41,0.07-0.41,0.64
		v1.75c0,0.57,0.04,0.61,0.41,0.64v0.21h-1.72V73.43z M210.96,79.81v0.21h-1.86v-0.21c0.43-0.03,0.47-0.07,0.47-0.64v-2.33h-0.09
		c-0.36,0-0.5,0.07-0.59,0.16c-0.06,0.08-0.13,0.22-0.2,0.51h-0.22c0.02-0.45,0.05-0.81,0.06-1.08h0.16
		c0.08,0.12,0.13,0.13,0.28,0.13h2.12c0.14,0,0.16-0.03,0.25-0.13h0.16c0.01,0.22,0.03,0.67,0.06,1.07l-0.23,0.02
		c-0.08-0.32-0.14-0.46-0.22-0.55c-0.09-0.1-0.27-0.13-0.52-0.13h-0.13v2.33C210.48,79.74,210.52,79.77,210.96,79.81z M207.44,73.64
		h-1.31v-0.21c0.26-0.02,0.35-0.07,0.39-0.27c0.03-0.16,0.06-0.45,0.09-0.93l0.06-1.07c0.04-0.67-0.01-0.73-0.43-0.76v-0.21h1.25
		l0.93,2.1l0.81-2.1h1.29v0.21c-0.4,0.04-0.43,0.06-0.41,0.62l0.05,1.78c0.02,0.59,0.03,0.61,0.41,0.64v0.21h-1.66v-0.21
		c0.4-0.04,0.41-0.05,0.41-0.64l-0.02-1.87h-0.02l-1.02,2.66h-0.29L207,71.1h-0.01l-0.04,1.18c-0.02,0.46-0.01,0.71,0.01,0.88
		c0.02,0.2,0.14,0.25,0.48,0.27L207.44,73.64L207.44,73.64z M212.1,86.39h-1.66v-0.21c0.4-0.04,0.41-0.05,0.41-0.64l-0.01-1.87
		h-0.02l-1.02,2.66h-0.29l-0.97-2.47h-0.01l-0.04,1.18c-0.02,0.46-0.01,0.71,0.01,0.88c0.02,0.2,0.14,0.25,0.48,0.27v0.21h-1.31
		v-0.21c0.26-0.02,0.36-0.07,0.39-0.27c0.03-0.16,0.06-0.45,0.09-0.93l0.06-1.07c0.04-0.67-0.01-0.73-0.43-0.76v-0.21h1.25l0.93,2.1
		l0.81-2.1h1.29v0.21c-0.4,0.04-0.43,0.06-0.41,0.62l0.05,1.78c0.01,0.59,0.02,0.61,0.41,0.64L212.1,86.39L212.1,86.39z
		 M215.12,86.39h-2.7v-0.21c0.41-0.03,0.45-0.07,0.45-0.64v-1.75c0-0.57-0.04-0.61-0.4-0.64v-0.21h2.52
		c0.01,0.09,0.03,0.48,0.06,0.88l-0.23,0.02c-0.05-0.26-0.11-0.41-0.2-0.49c-0.08-0.09-0.26-0.12-0.54-0.12h-0.09
		c-0.2,0-0.21,0-0.21,0.19v1.03h0.27c0.46,0,0.47-0.03,0.53-0.43h0.23v1.25h-0.23c-0.05-0.47-0.07-0.5-0.53-0.5h-0.27v0.87
		c0,0.28,0.01,0.41,0.11,0.46c0.09,0.04,0.21,0.05,0.37,0.05c0.21,0,0.45-0.03,0.56-0.16c0.09-0.1,0.18-0.29,0.26-0.55l0.23,0.04
		C215.28,85.7,215.17,86.24,215.12,86.39z M218.84,86.39h-1.67v-0.21l0.16-0.02c0.2-0.03,0.21-0.08,0.14-0.27l-0.19-0.54h-0.87
		l-0.16,0.51c-0.07,0.23-0.07,0.28,0.18,0.31l0.15,0.02v0.21h-1.24v-0.2c0.27-0.04,0.35-0.06,0.53-0.5l1.06-2.75l0.37-0.07l0.36,1
		c0.23,0.63,0.46,1.26,0.66,1.8c0.17,0.46,0.27,0.49,0.53,0.52L218.84,86.39L218.84,86.39z M220.08,73.64h-1.67v-0.21l0.16-0.02
		c0.2-0.03,0.21-0.08,0.14-0.27l-0.19-0.54h-0.87l-0.16,0.51c-0.07,0.23-0.07,0.28,0.18,0.31l0.15,0.02v0.21h-1.24v-0.21
		c0.27-0.04,0.35-0.06,0.53-0.5l1.06-2.75l0.37-0.07l0.36,1c0.23,0.63,0.46,1.26,0.66,1.8c0.17,0.46,0.27,0.49,0.53,0.52
		L220.08,73.64L220.08,73.64z"/>
</g>
<circle class="st0" cx="196.85" cy="129.12" r="1.39"/>
<circle class="st0" cx="210.94" cy="131.43" r="1.39"/>
<path class="st0" d="M158.35,53.37L158.35,53.37L158.35,53.37z"/>
<path class="st0" d="M216.72,28.26L216.72,28.26L216.72,28.26z"/>
<path class="st0" d="M239.14,55.86L239.14,55.86L239.14,55.86z"/>
<path class="st0" d="M249.94,101.04L249.94,101.04L249.94,101.04z"/>
<circle class="st0" cx="202.98" cy="31.04" r="1.39"/>
<circle class="st0" cx="236.04" cy="43.98" r="1.39"/>
<g>
	<path class="st0" d="M167.76,103.67c0.53,0.77,0.8,1.59,0.8,2.44c0,0.97-0.33,1.76-2.06,2.96l-5.01,3.57l-0.92-1.33
		c0,0,5.14-3.66,5.22-3.72c0.89-0.61,1.26-1.06,1.26-1.76c0-0.44-0.16-0.93-0.48-1.39c-0.5-0.72-1.15-0.95-1.72-0.96
		c-0.52,0-1.07,0.36-2.06,1.05l-4.72,3.2l-0.91-1.3l4.49-3.04c1.25-0.88,2.24-1.48,3.17-1.48
		C166.17,101.92,167.15,102.8,167.76,103.67z"/>
</g>
<g>
	<path class="st0" d="M151.73,93.88l9.54-3.35l0.53,1.45l-5.46,6.67l6.9-2.73l0.51,1.41l-9.43,3.62l-0.53-1.45l5.49-6.68l-7.04,2.46
		L151.73,93.88z"/>
</g>
<g>
	<path class="st0" d="M150.3,86.28l9.99-1.48l0.24,1.6l-9.99,1.48L150.3,86.28z"/>
</g>
<g>
	<path class="st0" d="M150,74.24l0.04-1.68l9.97,4.05l-0.07,1.66l-10.24,3.05l0.01-1.68l8.3-2.33L150,74.24z"/>
</g>
<path class="st0" d="M159.12,51.64c-1.43,0-2.09,0.82-3,2.47l-1.19,2.12l8.9,4.83l0.77-1.39l-3.7-2.02l0.22-0.4
	c0.62-1.12,0.84-1.3,2.42-1.16l2.88,0.26l0.82-1.49l-3.32-0.28c-0.67-0.06-1.19-0.11-1.62,0.01c-0.14,0.04-0.31,0.13-0.48,0.24
	c0.04-0.18,0.11-0.36,0.11-0.54c0-0.28-0.04-0.57-0.12-0.82c-0.19-0.59-0.62-1.07-1.26-1.43C160.08,51.78,159.6,51.64,159.12,51.64z
	 M157.32,54.7c0.59-1.08,1.01-1.49,1.64-1.48c0.23,0,0.52,0.06,0.82,0.22c0.38,0.21,0.67,0.56,0.78,0.93
	c0.04,0.15,0.06,0.29,0.06,0.44c-0.01,0.6-0.34,1.2-0.69,1.83l-0.21,0.38l-2.85-1.53L157.32,54.7z"/>
<g>
	<path class="st0" d="M170.17,37.37l1.29-0.98l6.13,8.03l-1.29,0.98L170.17,37.37z"/>
</g>
<g>
	<path class="st0" d="M175.72,33.44l6.53-3.4l0.64,1.23l-2.54,1.32l4.02,7.73l-1.43,0.75l-4.02-7.73l-2.56,1.33L175.72,33.44z"/>
</g>
<g>
	<path class="st0" d="M192.01,26.96l1.7-0.48l-1.37,6.76l1.11,3.83l-1.54,0.44l-1.09-3.81l-4.79-5l1.66-0.48l3.45,3.59L192.01,26.96
		z"/>
</g>
<g>
	<path class="st0" d="M222.83,40.77l5.13-8.7l4.82,2.84l-0.7,1.19l-3.44-2.03l-1.42,2.41l3.24,1.91l-0.69,1.17l-3.24-1.91
		l-2.32,3.94L222.83,40.77z"/>
</g>
<g>
	<path class="st0" d="M248.77,63.26l3.68-4.4l0.57,1.74l-2.74,3.13l4.07,0.91l0.54,1.64l-5.56-1.35l-3.95,4.74l-0.56-1.71l2.98-3.48
		l-4.46-1.02l-0.54-1.66L248.77,63.26z"/>
</g>
<g>
	<path class="st0" d="M245.89,73.19l10.07-0.82l0.46,5.58l-1.38,0.11l-0.32-3.99l-2.78,0.23l0.31,3.75l-1.35,0.11l-0.31-3.75
		l-4.56,0.37L245.89,73.19z"/>
</g>
<path class="st0" d="M250.34,82.19c-1.17,0-2.24,0.32-3.09,0.93c-1.52,1.1-1.8,2.69-1.8,3.62c0,3.41,3.21,4.78,5.62,4.78
	c1.16,0,2.22-0.31,3.05-0.92c1.7-1.23,1.79-3.08,1.79-3.68C255.91,83.94,253.17,82.19,250.34,82.19z M251.13,89.89
	c-1.97,0-4.26-1.07-4.26-3.06c0-0.72,0.25-1.68,1.14-2.33c0.6-0.44,1.38-0.67,2.25-0.67c1,0,2.81,0.28,3.76,1.59
	c0.33,0.45,0.49,0.97,0.49,1.53c0,0.77-0.32,1.69-1.15,2.29C252.77,89.67,252,89.89,251.13,89.89z"/>
<path class="st0" d="M244.48,48.57c-1.02,0-2.11,0.32-3.15,0.99c-1.94,1.23-2.65,2.99-2.65,4.28c0,0.83,0.23,1.65,0.71,2.4
	c1.08,1.7,2.69,2.12,3.78,2.11c1.04-0.01,2.14-0.35,3.18-1.01c1.25-0.79,2.64-2.26,2.64-4.26c0-0.83-0.24-1.64-0.71-2.4
	C247.38,49.3,246,48.57,244.48,48.57z M242.9,56.8c-0.91,0-1.73-0.38-2.29-1.27c-0.29-0.45-0.43-0.94-0.43-1.44
	c-0.01-1.14,0.72-2.31,2.04-3.15c0.88-0.56,1.74-0.83,2.51-0.83c0.97,0,1.77,0.43,2.29,1.26c0.31,0.49,0.46,1.01,0.46,1.54
	c0,1.12-0.71,2.21-1.99,3.02C244.6,56.5,243.7,56.8,242.9,56.8z"/>
<path class="st0" d="M216.93,27.77c-2.1,0-3.94,1.42-4.68,3.93c-0.16,0.56-0.27,1.11-0.27,1.65c0,1.01,0.17,1.81,0.58,2.56
	c0.93,1.71,2.65,2.29,3.94,2.29c0.73,0,1.44-0.17,2.09-0.52c1.7-0.93,2.83-3.1,2.83-5.16c0-0.9-0.17-1.75-0.57-2.47
	C220.04,28.57,218.52,27.77,216.93,27.77z M216.41,36.78c-0.73,0-1.79-0.36-2.38-1.44c-0.29-0.52-0.41-1.16-0.41-1.81
	c0-1.81,1.21-4.35,3.4-4.35c1.24,0,2.79,0.92,2.79,3.2C219.81,33.85,218.79,36.78,216.41,36.78z"/>
<path class="st0" d="M160.99,64.4l1.36,0.38l-1.53,5.55l-9.77-2.68l1.67-5.61l1.33,0.38l-1.23,4.04l2.7,0.74l1.04-3.67l1.3,0.37
	l-1.04,3.66l3.05,0.84L160.99,64.4z"/>
<g>
	<g>
		<path class="st0" d="M163.55,43.3c1.4-1.57,2.84-1.46,2.84-1.46l0.25,1.33c0,0-1.11,0.04-1.97,1.01
			c-0.38,0.42-0.57,0.86-0.57,1.26c0,0.33,0.13,0.61,0.38,0.84c0.7,0.62,1.9-0.07,2.64-0.37c0.58-0.24,1.39-0.57,2.21-0.57
			c0.61,0,1.24,0.17,1.82,0.69c0.67,0.6,1.01,1.35,1.01,2.15c0,0.86-0.33,1.62-1,2.37c-1.29,1.44-3.02,1.6-3.02,1.6l-0.35-1.35
			c1.02-0.24,1.79-0.63,2.26-1.15c0.37-0.41,0.55-0.87,0.55-1.28c0-0.38-0.16-0.74-0.47-1.01c-0.25-0.22-0.56-0.31-0.89-0.3
			c-0.65,0-1.43,0.37-2.07,0.64c-1.23,0.51-2.52,0.92-3.68-0.12c-0.59-0.53-0.9-1.19-0.9-1.92C162.59,44.86,162.9,44.03,163.55,43.3
			z"/>
	</g>
</g>
<path class="st0" d="M243.21,95.26l3.82,1.73l-0.19,0.43c-0.52,1.18-0.72,1.37-2.31,1.37l-2.89,0l-0.69,1.56l3.33-0.01
	c0.68,0,1.2,0,1.61-0.16c0.13-0.05,0.28-0.14,0.43-0.25c-0.01,0.09-0.04,0.17-0.04,0.26c0,0.37,0.07,0.74,0.21,1.06
	c0.46,1.07,1.7,1.59,2.61,1.59c1.61,0,2.22-0.96,3-2.73c0.03-0.07,0.94-2.16,0.94-2.16l-9.18-4.14L243.21,95.26z M249.17,101.25
	c-0.46,0-1.23-0.26-1.52-1.01c-0.07-0.19-0.1-0.39-0.1-0.58c0.01-0.55,0.27-1.13,0.54-1.73l0.17-0.39l2.91,1.31l-0.32,0.78
	C250.3,100.85,249.95,101.25,249.17,101.25z"/>
<path class="st0" d="M237.89,104.81c-1.05,1.31-1.84,2.48-1.84,4c0,1.29,0.58,2.75,2.06,3.93c0.98,0.78,2.09,1.21,3.23,1.21
	c1.4,0,2.53-0.42,4.28-2.61l1.6-2.01l-7.89-6.3L237.89,104.81z M241.49,112.41c-0.8,0-1.56-0.31-2.34-0.93
	c-0.79-0.64-1.64-1.62-1.64-2.89c0-0.88,0.48-1.71,1.21-2.63l0.67-0.84l5.77,4.6l-0.44,0.55
	C243.64,111.62,242.91,112.41,241.49,112.41z"/>
<path class="st0" d="M260.9,79.28c0-31.85-25.95-57.76-57.85-57.76c-31.9,0-57.85,25.91-57.85,57.76c0,19.11,9.44,36.92,25.24,47.71
	c1.56,5.79,6.85,10.07,13.15,10.07c1.7,0,3.35-0.32,4.92-0.93c2.12,0.7,4.3,1.28,6.48,1.73c-0.61,1.75-1.51,3.42-2.36,4.85
	c0,0,0.02,0,0.05-0.01c-0.02,0.01-0.03,0.02-0.05,0.03l1.21,1.21c0.31-0.17,0.65-0.27,1.03-0.27c1.19,0,2.16,0.97,2.16,2.16
	c0,1.19-0.97,2.16-2.16,2.16c-1.04,0-1.95-0.67-2.43-1.38c0,0-0.28,0.97-0.28,2.25c-0.01,4.15,4.52,8.89,10.8,10.89
	c6.27-1.95,10.81-6.73,10.8-10.88c0-1.43-0.28-2.26-0.28-2.26c-0.48,0.58-1.26,1.38-2.44,1.38c-1.19,0-2.16-0.97-2.16-2.16
	c0-1.19,0.97-2.16,2.16-2.16c0.42,0,0.8,0.12,1.13,0.33l1.17-1.17c0.03,0.01,0.04,0.01,0.04,0.01c-0.66-1.58-1.15-3.04-1.47-4.43
	c10.4-1.4,19.18-5.8,26.16-13.14l-0.01-0.01C252.57,114.23,260.9,97.49,260.9,79.28z M183.59,135.43c-6.57,0-11.91-5.36-11.91-11.94
	c0-2.06,0.52-4.01,1.45-5.7c0.61,0.56,1.27,1.14,1.95,1.72c-0.58,1.22-0.91,2.58-0.91,4.03c0,3.58,1.81,6.54,5.23,8.56
	c1.96,1.16,4.19,2.2,6.54,3.11C185.16,135.35,184.38,135.43,183.59,135.43z M203.05,118.05c-2.48,0-4.92-0.24-7.31-0.69
	c-2.31-4.53-7.04-7.44-12.15-7.44c-1.26,0-2.47,0.18-3.62,0.5c-9.82-7.3-15.68-18.91-15.68-31.14c0-21.38,17.39-38.77,38.76-38.77
	c21.37,0,38.76,17.39,38.76,38.77S224.42,118.05,203.05,118.05z M211.67,118.75c-1.16,1.66-1.85,3.96-2.06,6.3
	c-3.67-0.94-7-2.22-9.9-3.54c0.55-1.07,2.13-1.82,3.34-1.82C206.01,119.68,208.89,119.35,211.67,118.75z M199.38,119.51
	c-0.49,0.37-0.89,0.81-1.17,1.29c-1.46-0.71-3.3-1.63-4.51-2.3C195.41,118.87,197.63,119.35,199.38,119.51z M183.59,111.54
	c3.99,0,7.73,2.05,9.91,5.33c-1.92-0.49-3.8-1.12-5.64-1.9l-0.01,0.01l-0.06-0.04c-1.28-0.61-2.66-0.91-4.09-0.91
	c-3.18,0-5.99,1.56-7.73,3.94c-0.73-0.4-1.46-0.83-2.18-1.28C175.95,113.59,179.53,111.54,183.59,111.54z M211.03,142
	c-2.13,0-3.88,1.51-3.88,3.83c0,2.27,1.77,3.83,3.88,3.83c0.32,0,0.63-0.05,0.92-0.13c-0.45,3.21-4.18,6.8-9,8.41
	c-4.78-1.6-8.52-5.22-9.01-8.41c0.3,0.08,0.6,0.13,0.92,0.13c2.3,0,3.88-1.61,3.88-3.83c0-2.11-1.66-3.77-3.8-3.82
	c0.65-1.19,1.28-2.46,1.74-3.82c2.65,0.46,5.26,0.71,7.69,0.71c1.99,0,3.93-0.11,5.82-0.3c0.25,1.1,0.62,2.24,1.06,3.42
	C211.18,142.01,211.1,142,211.03,142z M204.38,137.27c-7.76,0-17.44-2.64-24.09-6.56c-2.02-1.19-4.42-3.4-4.42-7.18
	c0-1.02,0.2-1.99,0.55-2.89c2.48,2.05,5.05,3.98,6.66,4.86c0.37,0.2,0.58,0.3,1.02,0.3c1.03,0,1.87-0.84,1.87-1.88
	c0-0.79-0.43-1.44-1.14-1.75c-1.38-0.6-4.26-1.79-7.35-3.4c1.43-1.89,3.69-3.12,6.24-3.12c1.16,0,2.28,0.25,3.33,0.74l2.13,1.24
	c6.76,4.13,24.15,14.72,45.15,8.9C226.34,133.73,216.52,137.27,204.38,137.27z M236.95,124.02c-9.4,3.32-18.17,3.1-25.65,1.43
	c0.24-3.34,1.63-6.91,3.74-7.58c16.48-5.11,28.49-20.48,28.49-38.59c0-22.28-18.16-40.4-40.47-40.4S162.57,57,162.57,79.28
	c0,12.39,5.79,24.16,15.53,31.8c-2.31,1.02-4.29,2.66-5.71,4.71c-0.74-0.5-1.45-1.03-2.11-1.57l-0.37,0.37
	c0.44,0.53,1.12,1.23,1.95,2.02c-1.2,2.02-1.9,4.37-1.9,6.88c0,0.39,0.03,0.78,0.06,1.16c-14.5-10.57-23.12-27.37-23.12-45.37
	c0-30.95,25.18-56.14,56.14-56.14s56.14,25.18,56.14,56.14C259.19,97.01,251.08,113.3,236.95,124.02z"/>
</svg>
