<?xml version="1.0" encoding="utf-8"?>
<!-- Generator: Adobe Illustrator 27.1.1, SVG Export Plug-In . SVG Version: 6.00 Build 0)  -->
<svg version="1.1" id="Layer_1" xmlns="http://www.w3.org/2000/svg" xmlns:xlink="http://www.w3.org/1999/xlink" x="0px" y="0px"
	 viewBox="0 0 559.77 186" style="enable-background:new 0 0 559.77 186;" xml:space="preserve">
<style type="text/css">
	.st0{fill:#202020;}
	.st1{fill:#999999;}
	.st2{fill:#FFFFFF;}
</style>
<g>
	<path id="XMLID_15_" class="st0" d="M507.69,43.97c-5.19,0-12.06,0.56-14.45,0.56c-1.4,0-6.87-0.14-8.56-0.14v1.4
		c2.81,0.56,4.49,1.54,4.49,4.21v38.01c0,2.67-1.54,3.93-4.49,4.35v1.4c1.68,0,6.73-0.28,8.14-0.28c2.38,0,8.7,0.42,13.89,0.42
		c18.1,0,29.18-10.66,29.18-25.25C535.88,53.65,525.22,43.97,507.69,43.97L507.69,43.97z M293.91,43.97
		c-2.67,0-9.54,0.42-11.92,0.42c-1.54,0-6.59-0.14-8.28-0.14v1.4c3.09,0.56,4.35,1.96,4.35,4.35v37.73c0,2.67-1.54,3.93-4.35,4.49
		v1.4c1.68,0,6.87-0.28,8.28-0.28c1.54,0,6.87,0.28,8.56,0.28v-1.4c-2.95-0.56-4.49-1.96-4.49-4.49V70.77
		c0.84,0.14,1.54,0.14,2.24,0.28c3.79,0.56,5.89,2.38,7.57,4.49c2.67,3.37,7.57,10.38,10.24,13.61c3.09,3.79,6.31,5.19,10.38,5.19
		c1.82,0,4.35-0.28,5.75-0.56v-1.12c-3.09-0.14-6.17-3.37-8.42-6.17c-2.38-2.81-8.28-11.08-10.38-13.47
		c-1.68-1.96-3.37-2.95-3.37-2.95c7.43-1.82,12.34-6.31,12.34-12.76C312.29,48.88,305.69,43.97,293.91,43.97L293.91,43.97z
		 M449.19,43.97c-2.67,0-9.54,0.42-11.92,0.42c-1.54,0-6.59-0.14-8.28-0.14v1.4c3.09,0.56,4.35,1.96,4.35,4.35v37.73
		c0,2.67-1.68,3.93-4.35,4.49v1.4c1.68,0,6.87-0.28,8.14-0.28c1.54,0,6.87,0.28,8.56,0.28v-1.4c-2.95-0.56-4.63-1.96-4.63-4.49
		V70.77c0.84,0.14,1.54,0.14,2.24,0.28c3.79,0.56,5.89,2.38,7.57,4.49c2.67,3.37,7.43,10.38,10.1,13.61
		c3.09,3.79,6.31,5.19,10.24,5.19c1.82,0,4.35-0.28,5.89-0.56v-1.12c-3.23-0.14-6.17-3.37-8.42-6.17
		c-2.24-2.81-8.14-11.08-10.1-13.47c-1.68-1.96-3.37-2.95-3.37-2.95c7.43-1.82,12.34-6.31,12.34-12.76
		C467.57,48.88,460.98,43.97,449.19,43.97L449.19,43.97z M237.8,44.11c0,0-0.84,3.23-1.54,4.77l-15.71,37.87
		c-1.12,2.67-2.81,4.77-6.03,5.47v1.26l7.15-0.14c0.98,0,5.33,0.14,7.01,0.14v-1.26c-2.81-0.7-3.51-1.82-3.51-3.23
		c0-0.84,0.42-2.24,0.84-3.23l3.23-8.14h18.38l3.51,8c0.56,1.12,0.98,2.38,0.98,3.37c0,1.12-0.7,2.38-3.23,2.95v1.26
		c1.82,0,7.15-0.14,8.42-0.14c1.26,0,6.87,0.14,8.7,0.14v-1.26c-3.37-0.84-4.63-2.67-5.75-5.33L243.55,48.6
		c-0.7-1.54-1.4-4.77-1.4-4.77h-4.35V44.11z M393.93,44.11c0,0-0.84,3.23-1.4,4.77l-15.71,37.87c-1.12,2.67-2.81,4.77-5.89,5.47
		v1.26l7.29-0.14c0.98,0,5.19,0.14,6.73,0.14v-1.26c-2.81-0.7-3.51-1.82-3.51-3.23c0-0.84,0.42-2.24,0.84-3.23l3.23-8.14h18.52
		l3.51,8c0.56,1.12,0.84,2.38,0.84,3.37c0,1.12-0.7,2.38-3.09,2.95v1.26c1.82,0,7.15-0.14,8.42-0.14c1.26,0,6.87,0.14,8.7,0.14
		v-1.26c-3.37-0.84-4.63-2.67-5.75-5.33L399.96,48.6c-0.7-1.54-1.54-4.77-1.54-4.77h-4.49V44.11z M154.48,44.26v1.4
		c2.38,0.56,3.93,1.68,3.93,4.21v38.29c0,2.67-1.68,3.65-3.93,4.21v1.26c1.12,0,6.45-0.14,7.71-0.14c1.54,0,7.01,0.14,8.28,0.14
		v-1.26c-2.38-0.56-4.07-1.54-4.07-4.21v-18.1h28.48v18.1c0,2.67-1.54,3.65-3.93,4.21v1.26c1.26,0,6.59-0.14,8.14-0.14
		c1.26,0,6.59,0.14,7.86,0.14v-1.26c-2.38-0.56-4.07-1.68-4.07-4.21V49.87c0-2.67,1.68-3.65,4.07-4.21v-1.4
		c-1.26,0-6.59,0.14-7.86,0.14c-1.54,0-6.87-0.14-8.14-0.14v1.4c2.38,0.56,3.93,1.54,3.93,4.21v15.99h-28.62V49.87
		c0-2.67,1.68-3.65,4.07-4.21v-1.4c-1.26,0-6.73,0.14-8.28,0.14C160.93,44.4,155.6,44.26,154.48,44.26z M320.56,44.4v1.4
		c2.81,0.56,4.49,2.38,5.61,4.77l19.36,43.34h3.79l17.67-41.66c1.68-3.93,3.51-5.61,6.45-6.31v-1.4c-1.68,0-6.31,0.28-7.43,0.28
		c-1.26,0-5.05-0.28-6.73-0.28v1.4c1.96,0.42,3.37,1.4,3.37,2.95c0,1.4-0.7,3.23-1.68,5.47l-12.06,28.9l-12.76-28.9
		c-1.4-2.95-2.1-4.63-2.1-5.75c0-1.68,1.82-2.53,3.37-2.81v-1.4c-1.82,0-7.01,0.28-8.28,0.28C328.14,44.54,322.39,44.4,320.56,44.4
		L320.56,44.4z M291.53,47.2c8.14,0,12.48,4.07,12.48,10.8c0,4.63-2.95,9.96-12.2,9.96c-2.24,0-4.63-0.14-6.17-0.28V47.76
		C287.46,47.34,289.98,47.2,291.53,47.2z M446.95,47.2c8.14,0,12.48,4.07,12.48,10.8c0,4.63-2.95,9.96-12.2,9.96
		c-2.24,0-4.63-0.14-6.17-0.28V47.76C442.88,47.34,445.27,47.2,446.95,47.2L446.95,47.2z M505.44,47.2
		c13.75,0,21.88,8.98,21.88,21.88c0,12.34-7.72,21.18-22.44,21.18c-2.52,0-5.89-0.14-7.72-0.56V47.62
		C498.99,47.34,502.64,47.2,505.44,47.2z M238.22,55.48l7.86,18.24h-15.29L238.22,55.48z M394.35,55.48l7.86,18.24h-15.15
		L394.35,55.48z"/>
	<path id="XMLID_16_" class="st1" d="M77.33,29.11H24.3l-0.14,42.36c0,51.9,52.04,85.01,52.6,85.43l0.14,0.14l0.42-0.28
		c8.84-5.75,53.02-37.17,53.02-85.01v-42.5L77.33,29.11"/>
	<path id="XMLID_17_" class="st0" d="M24.87,71.47h0.98V30.23h104.78v-0.98h-0.98c0,0,0,6.31,0,42.5
		c0,26.37-13.19,47.41-26.37,61.86c-6.59,7.15-13.19,12.76-18.24,16.55c-2.52,1.82-4.49,3.37-6.03,4.21
		c-0.7,0.42-1.26,0.84-1.68,1.12c-0.42,0.28-0.56,0.42-0.56,0.42l0.42,0.84l0.56-0.84c0,0-0.14-0.14-0.56-0.42
		c-2.81-1.82-15.71-10.8-27.91-25.25c-12.2-14.45-23.57-34.51-23.57-58.77v-0.84h-0.98l0,0L24.87,71.47l0.84-0.56l0,0L24.87,71.47
		h0.98H24.87l-0.84,0.56l0,0l0.28,0.42h0.56l0,0V71.47h-0.98c0,26.51,13.19,47.97,26.37,62.84c13.19,14.87,26.37,23.15,26.37,23.15
		l0.42,0.28l0.56-0.28c0,0,13.47-7.86,26.93-22.58c13.47-14.59,26.93-36.05,26.93-63.12c0-18.1,0-28.76,0-34.79s0-7.72,0-7.72v-0.98
		H23.88v43.49l0.14,0.28L24.87,71.47z"/>
	<path id="XMLID_35_" class="st0" d="M372.18,115.94c-5.19,0-8.56,2.67-8.56,7.01c0,4.91,4.91,6.73,7.29,7.86
		c3.23,1.54,6.03,2.81,6.03,5.61c0,2.67-2.1,4.21-5.47,4.21c-1.54,0-3.37-0.42-4.63-1.26c-1.12-0.7-1.96-2.1-2.38-3.51h-0.7v5.33
		c1.82,0.28,4.07,1.26,7.57,1.26c5.89,0,9.26-2.95,9.26-7.15c0-4.49-3.79-6.17-7.43-7.72c-2.95-1.26-6.03-2.95-6.03-5.75
		c0-2.1,1.4-4.07,4.77-4.07c2.95,0,5.75,1.12,6.73,4.07h0.7v-5.19C377.23,116.78,375.55,115.94,372.18,115.94z M281.99,115.94
		c-8,0-13.47,5.61-13.47,13.33c0,7.29,4.35,13.19,13.61,13.19c4.49,0,7.15-1.54,8.98-1.26l0.28-5.61h-0.7
		c-1.26,3.65-4.21,5.05-8.14,5.05c-7.15,0-9.68-6.31-9.68-11.36c0-6.17,3.23-11.36,9.12-11.36c3.51,0,6.87,1.68,8.28,5.05h0.7
		l-0.28-5.61C288.3,117.34,285.92,115.94,281.99,115.94z M400.8,115.94c-8,0-13.47,5.61-13.47,13.33c0,7.29,4.35,13.19,13.75,13.19
		c4.49,0,7.15-1.54,8.98-1.26l0.28-5.61h-0.7c-1.26,3.65-4.21,5.05-8.14,5.05c-7.01,0-9.68-6.31-9.68-11.36
		c0-6.17,3.23-11.36,9.12-11.36c3.51,0,6.87,1.68,8.28,5.05h0.7l-0.28-5.61C407.11,117.34,404.73,115.94,400.8,115.94z
		 M463.92,115.94c-8,0-13.05,6.03-13.05,13.33c0,7.43,5.05,13.19,13.05,13.19c8,0,13.05-5.89,13.05-13.19
		C476.97,121.97,471.92,115.94,463.92,115.94z M495.91,115.94c-8,0-13.05,6.03-13.05,13.33c0,7.43,5.05,13.19,13.05,13.19
		c8,0,13.05-5.89,13.05-13.19C508.95,121.97,503.9,115.94,495.91,115.94z M212.13,116.22c-0.56,0.14-1.4,0.28-1.82,0.28h-15.99v0.7
		c1.54,0.28,2.24,0.98,2.24,2.24v19.5c0,1.4-0.84,2.1-2.24,2.38v0.7c0.84,0,3.65-0.14,4.35-0.14h8.14c2.81,0,4.21,0,6.59,0.28
		l0.7-5.33l-0.7-0.14c-0.84,1.96-1.68,3.23-5.05,3.23h-7.72v-10.38h5.47c0.7,0,1.68,0.14,2.1,0.14c1.12,0.28,1.68,1.12,1.96,2.1h0.7
		c0-0.84-0.14-2.67-0.14-3.23c0-0.56,0-2.24,0.14-3.09h-0.7c-0.28,0.98-0.7,1.68-1.96,1.96c-0.42,0.14-1.4,0.14-2.1,0.14h-5.47
		v-9.12h6.73c3.09,0,4.07,1.26,4.63,2.95h0.7l0.14-5.19H212.13z M232.61,116.22c-2.67,0-6.03,0.28-7.29,0.28
		c-0.7,0-3.51-0.14-4.35-0.14v0.7c1.4,0.28,2.24,0.84,2.24,2.24v19.64c0,1.4-0.84,1.96-2.38,2.24v0.7c0.84,0,3.51-0.14,4.21-0.14
		c1.26,0,4.35,0.28,7.01,0.28c9.26,0,15.01-5.61,15.01-13.05C247.06,121.27,241.73,116.22,232.61,116.22z M306.82,116.36
		c0,0-0.42,1.68-0.7,2.52l-8.14,19.64c-0.56,1.4-1.54,2.38-3.09,2.81v0.7l3.79-0.14c0.56,0,2.67,0.14,3.51,0.14v-0.7
		c-1.4-0.42-1.82-0.98-1.82-1.68c0-0.42,0.28-1.12,0.42-1.68l1.68-4.21h9.54l1.82,4.21c0.28,0.56,0.42,1.26,0.42,1.68
		c0,0.56-0.42,1.26-1.68,1.54v0.7c0.98,0,3.65-0.14,4.35-0.14c0.7,0,3.51,0.14,4.49,0.14v-0.7c-1.68-0.42-2.38-1.4-2.95-2.81
		l-8.56-19.64c-0.28-0.84-0.7-2.53-0.7-2.53h-2.38V116.36z M417.49,116.5v0.7c1.26,0.28,2.1,0.84,2.1,2.24v19.64
		c0,1.4-0.84,1.96-2.1,2.24v0.7c0.56,0,3.37-0.14,4.07-0.14c0.7,0,3.65,0.14,4.21,0.14v-0.7c-1.26-0.28-2.1-0.84-2.1-2.24v-9.26
		h14.59v9.26c0,1.4-0.84,1.96-1.96,2.24v0.7c0.7,0,3.37-0.14,4.21-0.14c0.7,0,3.51,0.14,4.07,0.14v-0.7
		c-1.26-0.28-2.1-0.84-2.1-2.24v-19.64c0-1.4,0.84-1.96,2.1-2.24v-0.7c-0.56,0-3.51,0.14-4.07,0.14c-0.84,0-3.51-0.14-4.21-0.14v0.7
		c1.26,0.28,1.96,0.84,1.96,2.24v8.28h-14.59v-8.28c0-1.4,0.84-1.96,2.1-2.24v-0.7c-0.56,0-3.51,0.14-4.21,0.14
		C420.86,116.5,418.05,116.5,417.49,116.5z M253.09,116.5v0.7c1.54,0.28,2.24,0.98,2.24,2.38v19.36c0,1.4-0.7,2.1-2.24,2.38v0.7
		c0.84,0,3.79-0.14,4.49-0.14c0.84,0,3.51,0.14,4.35,0.14v-0.7c-1.54-0.28-2.24-0.98-2.24-2.38v-19.36c0-1.4,0.84-1.96,2.24-2.38
		v-0.7c-0.84,0-3.65,0.14-4.35,0.14C256.74,116.5,253.93,116.5,253.09,116.5z M326.17,116.5v0.7c1.54,0.28,2.24,0.98,2.24,2.38
		v19.36c0,1.4-0.7,2.1-2.24,2.38v0.7c0.84,0,3.79-0.14,4.49-0.14h8.14c2.81,0,4.21,0,6.59,0.28l0.7-5.33l-0.7-0.14
		c-0.84,1.96-1.82,3.23-5.05,3.23h-7.72v-20.34c0-1.4,0.84-1.96,2.24-2.38v-0.7c-0.84,0-3.65,0.14-4.35,0.14
		C329.82,116.5,327.02,116.5,326.17,116.5z M514.84,116.5v0.7c1.54,0.28,2.24,0.98,2.24,2.38v19.36c0,1.4-0.7,2.1-2.24,2.38v0.7
		c0.84,0,3.79-0.14,4.49-0.14h8.14c2.81,0,4.21,0,6.59,0.28l0.7-5.33l-0.7-0.14c-0.84,1.96-1.82,3.23-5.05,3.23h-7.72v-20.34
		c0-1.4,0.84-1.96,2.24-2.38v-0.7c-0.84,0-3.65,0.14-4.35,0.14C518.63,116.5,515.68,116.5,514.84,116.5z M156.44,116.5v0.7
		c1.54,0.28,2.24,0.98,2.1,2.24l-1.4,18.94c-0.14,1.54-0.98,2.52-2.52,2.95v0.7h3.65c0.56,0,2.67,0,3.51,0v-0.7
		c-1.68-0.42-2.1-1.4-2.1-2.52l1.12-16.83l8.7,20.06h1.54l8.7-20.2l1.12,16.83c0,1.12-0.42,2.1-2.1,2.52v0.7c0.84,0,3.79,0,4.35,0
		h4.35v-0.7c-1.68-0.42-2.38-1.26-2.52-2.95l-1.4-18.94c-0.14-1.26,0.56-1.96,1.96-2.24v-0.7c-0.98,0-2.67,0-3.37,0
		c-0.56,0-1.82,0-2.67,0l-8.42,19.5l-8.42-19.5c-0.84,0-2.1,0-2.81,0C159.39,116.5,157.42,116.5,156.44,116.5z M463.92,117.9
		c6.03,0,8.56,5.61,8.56,11.5c0,5.89-2.67,11.36-8.56,11.36s-8.7-5.33-8.7-11.36S457.89,117.9,463.92,117.9z M495.91,117.9
		c5.89,0,8.56,5.61,8.56,11.5c0,5.89-2.67,11.36-8.56,11.36c-5.89,0-8.56-5.33-8.56-11.36C487.21,123.37,489.87,117.9,495.91,117.9z
		 M231.35,117.9c7.15,0,11.36,4.63,11.36,11.22c0,6.73-3.93,10.94-11.5,10.94c-1.4,0-2.95-0.14-3.79-0.28v-21.74
		C228.26,118.04,229.95,117.9,231.35,117.9z M306.96,122.25l4.07,9.4h-7.86L306.96,122.25z"/>
	<path id="XMLID_36_" class="st0" d="M98.91,133.94L98.91,133.94L98.91,133.94L98.91,133.94L98.91,133.94L98.91,133.94L98.91,133.94
		c-0.28-0.28-0.71-0.85-0.99-1.14c-0.43-1.85,2.56-3.12,0.99-5.11c-0.28-1.14-0.14-2.7-1.28-3.69c-0.85-0.71-1.99-0.85-2.98-1.42
		c0-0.43,0.57-0.28,0.99-0.43c1.56-0.43,2.98,1.42,4.12,0.14c0.14-0.99-0.85-1.99-1.56-2.7c-2.27-1.56-5.82-0.99-7.52-3.41
		l0.28-0.14c2.27,0.43,4.68,0.14,6.39-1.42c0.99-1.28,1.99-2.56,3.55-2.98c1.56-1.14,1.7-3.12,1.7-5.11
		c0.14-0.71,0.43-1.42,0.99-1.99c0.85-0.85,2.98-0.43,2.56-2.13c-1.14-0.57-2.41-1.14-3.83-0.99c-0.71-0.28,0.14-0.85,0.28-1.14
		c2.27-1.42,5.82-2.41,5.54-5.68c-0.28-0.43-0.14-0.85-0.71-0.99c-0.99,0.14-1.56,0.99-2.41,1.42c-2.13,1.14-4.83,0.99-6.81,2.27
		c-0.43,0-0.28-0.57-0.14-0.71c0.71-0.99,2.27-1.14,2.84-2.41c0.43-0.99,0.57-2.41,1.85-2.84c0.71-0.57,1.85-0.57,2.27-1.42
		c0-0.43-0.57-0.71-0.99-0.85c-1.99-0.57-3.97,0.57-5.39,1.99c-1.42,0.57-3.12,1.14-4.26,2.41c-0.14,0-0.57,0-0.57-0.43
		c-0.28-2.84,2.27-4.83,4.12-6.53c1.28-0.43,2.41-1.99,3.97-1.28c0.99,0.57,2.13,1.14,3.41,0.71c1.56-0.57,1.85-2.27,3.27-3.12
		c0.99-0.28,2.56,1.14,3.12-0.28c0.28-1.56-0.85-2.41-1.56-3.55c0.85-2.13,0.14-4.68-1.56-6.25c-0.85-0.43-1.85-0.85-2.84-0.57
		c-0.71,0.99,0.71,1.56,0.85,2.56c0.28,3.97-3.97,4.97-6.53,6.53c-4.97,2.41-10.79,6.25-11.21,12.49c0,3.55,1.56,6.53,3.97,9.09
		c1.28,2.13,3.27,4.12,2.56,6.96c-0.43,1.14-1.85,1.28-2.84,1.28c-4.26-0.28-6.53-4.97-8.23-8.23c-0.57-1.28-1.28-2.41-1.42-3.97
		c0.28-0.14,0.43-0.14,0.57,0c0.71,0.71,0.71,2.41,1.99,2.13c0.99-1.42,0.28-3.27-0.28-4.68c-0.71-1.28-2.41-1.99-2.98-3.41
		c0-0.99,1.42-0.43,1.56-1.42c-0.57-1.85-0.57-3.69-0.43-5.39c0.28-0.71,1.42-0.71,1.42-1.7c-0.43-1.7-0.43-3.55-0.43-5.39
		c0.14-1.14,1.14-2.27,0.43-3.55c-1.28-0.43-0.28-1.85-1.42-2.27c-2.41,0-4.12-1.28-6.1-1.99c-0.99-0.28-1.85,0.28-2.7,0.57
		c-1.28,0.28-2.7,0.28-3.69,1.28c-0.57,0.71-0.43,1.56-0.43,2.7c-0.14,0.57-0.71,0.14-0.99,0c-0.99-0.57-1.28-1.56-0.99-2.7
		c0.14-0.43-0.14-0.99-0.43-1.28c-0.57-0.43-1.56-0.57-2.27-0.28c-0.99,0.28-1.28,1.42-1.7,2.27c-0.14,0.71,0.14,1.56,0.43,2.13
		c1.42,1.42,3.41,1.99,4.97,3.27c0.28,0.85-0.28,1.7-0.85,2.41c-0.14,0.71,0.99,0.71,0.85,1.42c-1.14,0.28-2.27,0.14-3.12-0.57
		c-0.57-0.43-0.71-1.56-1.56-1.7c-0.85,0-0.99,1.14-1.28,1.7c-0.28,0.57,0,1.7-0.57,2.13l-0.57-0.14c-2.84-0.99-5.39-2.56-7.95-4.4
		c-1.42-1.14-2.56-2.84-3.69-4.26c-0.57-1.7-0.85-4.26-3.12-4.68c-0.43,0-1.14,0.14-1.14,0.71l-0.14,0.71
		c-1.14,0-2.27-0.85-3.41-0.43c-0.57,0.43-1.14,0.85-1.42,1.28c0,1.28,1.42,0.85,1.7,1.7c0,0.85,0.71,1.7,1.14,2.27
		c-0.28,0.43-0.85,0.71-1.14,1.28l-0.71,1.7c0.28,0.57,0.57,1.28,1.28,1.28c0.99-0.43,1.85,0.28,2.84,0.14c0.57,0,1.7-0.43,1.7,0.57
		c0.28,0.85,0,1.56-0.14,2.41c-0.85,1.28-2.13,2.27-3.41,2.98c-0.43,0.28-0.43,0.85-0.28,1.28c0.43,0.71,1.56,0.43,2.41,0.28
		c1.42,0,2.56-0.85,3.97-0.99c0.28,0.71,0.85,1.56,1.56,1.85c1.14,0.28,1.42-1.28,2.56-0.85c0.85,0.71,0.57,1.99,1.42,2.84
		c0,0.43-0.43,0.43-0.71,0.71c-1.14,0.43-2.84,0-3.83,0.99c-0.14,0.57,0.28,0.99,0.71,1.28c0.99,0.57,2.41,0.71,3.69,0.85
		c1.14,0.14,2.27-0.28,3.41,0l-0.28,0.57l-3.41,2.27c-1.56,0.57-3.27,0.99-4.68,1.7c-2.13,0.57-3.12-2.13-5.11-1.99
		c-0.85,0-1.42,0.28-1.99,0.71c-0.43,0.43-0.57,1.28-0.43,1.85c0.28,0.57,1.14,0.28,1.14,0.99c-0.14,1.99-1.7,3.41-1.85,5.39
		c-0.14,0.43,0,1.14,0.57,1.28c0.43,0.14,0.85,0,1.14-0.28c0.43-0.43,0.43-0.99,1.14-1.14c1.14,0.14,2.41,0.14,3.27-0.85
		c0.43,0,0.85,0.43,0.85,0.71c0,0.43,0,0.99,0.43,1.28c1.7,0,2.56-1.7,3.41-2.98c0.71-0.14,1.56-0.71,2.41-0.28
		c0.28,1.14-0.71,1.99-0.85,3.12c0,0.28,0.43,0.57,0.71,0.57c2.13-0.28,3.27-2.27,4.54-3.83c0.14-0.43,0.43-0.99,0.99-0.99
		c1.56,0.43,1.99-1.42,2.98-2.13h0.43c0.14,0.43-0.14,0.85,0,1.28c0.71,0.71,1.42-0.14,2.13-0.14l1.42-0.85
		c1.7,0.57,3.55,0.99,5.39,1.42c1.42,0.57,0,2.13,0.85,2.98c-0.14,0.43-0.85,0.57-1.42,0.57c-3.12,0.43-6.67-0.43-9.09,1.85
		l-1.42,1.42c-2.27,0.14-3.55,1.99-5.54,2.41c-1.42,0.99-3.55-0.43-4.54,1.14c0.71,1.42,2.41,1.99,3.97,2.41
		c0.57,0.28,1.7-0.14,1.99,0.57c0.14,0.71,0.28,1.56,0.99,1.85c0.57,0.14,0.99-0.71,1.56-0.28c0.71,0.99,1.85,1.56,2.56,2.56
		c-0.43,0.85-1.7,0.28-2.56,0.28h-0.14c-1.28,0.14-2.84,0.71-3.83-0.43c-1.28-0.99-2.41-2.56-4.26-2.56
		c-0.99,0.28-2.13,0.71-2.41,1.85c-0.14,0.71,0.57,0.99,0.85,1.42c-1.28,0.85-2.56,2.13-2.13,3.83c0.14,0.28,0.28,0.71,0.71,0.71
		c0.57,0,1.14-0.57,1.7-0.28c0.14,0.99-0.14,2.7,1.14,3.12c0.99-0.14,1.7-1.14,2.7-0.43c0.99,0.43,1.85-0.43,2.84-0.85
		c1.42,0,1.99,1.42,2.56,2.41c0.85,0.71,2.13,1.85,3.41,1.14c0.85-1.14-0.71-2.7,0.85-3.55c0.99-0.28,1.85,0,2.84-0.14
		c1.56,0.14,3.41,0.28,4.26-1.42l1.42-2.41l0.28-1.42c0.85-0.28,2.27,1.14,2.7-0.14c-0.43-1.42-0.57-2.84-0.43-4.4
		c0.28-0.99,0.71-1.99,1.42-2.7l0.28,0.14c0.43,1.7,0.43,3.55,1.28,5.11c-0.14,1.56-0.99,2.98-1.14,4.54
		c-0.43,1.7-1.56,2.98-3.12,3.83c-0.43,0.28-0.57,0.71-0.43,1.28c0.43,0.85,1.42,0.28,2.27,0.43c2.13-0.28,4.12-1.28,5.68-2.98
		c1.56,0.43,2.27-1.42,3.69-0.57c1.42,1.14,4.12-0.85,4.68,1.56c-0.28,1.14,0.85,3.12-0.99,3.69c-1.85-0.28-3.97-2.7-5.68-0.57
		c-0.43,0.43-0.71,0.99-0.43,1.56c0.28,0.57,0.57,1.14,0.14,1.56c-0.43,0.85-1.14,1.85-0.71,2.98c0.28,0.57,0.99,0.57,1.7,0.57
		c0.99-0.43,1.99,0.43,3.12,0.57c0.85,0.71,1.85,1.56,2.98,1.42c0.43-0.28,0.43-0.85,0.71-1.28c0.71-0.57,2.41-0.43,2.41-1.85
		c0.14-0.99,1.14-1.99,1.99-2.56C96.36,135.36,98.35,134.94,98.91,133.94z"/>
	<path id="XMLID_51_" class="st2" d="M66.25,72.03c-0.7,0.14-0.84,0.84-0.98,1.54c-0.14,0.84,0.42,1.54,0.98,2.1
		c1.82,0.84,3.37,2.24,5.05,3.37h0.56c-0.98-1.82-3.23-2.38-4.63-3.93c-0.56-0.7-0.56-1.68-0.28-2.52
		C66.95,72.17,66.67,72.03,66.25,72.03z M76.21,72.03c-1.26,0.84-3.09,0.42-4.21,1.26c-0.7,0.56,0.42,1.4-0.42,1.96
		c-0.14,0.42,0.14,0.84,0.28,1.12c1.12,0.98,2.67,2.24,2.24,3.93c-0.84,2.1-2.1-0.42-3.23-0.42c-0.42,0.14-0.7,0.42-0.7,0.98
		c0.14,0.28,0.42,0.28,0.7,0.28c0.28,0.14,0.7,0.42,0.56,0.84c-0.14,0.84-0.7,1.82-1.68,1.96c-1.12,0.42-2.53,0.28-3.51-0.28
		c-0.56-0.14-0.84-1.12-1.54-0.98c-0.98,0.98-0.14,2.24,0.14,3.23c-2.38,2.38-4.21,5.47-7.15,7.29c-0.7,0.42-1.68,0.56-2.24,1.12
		c0.28,0.14,0.7,0.28,1.12,0.28c2.53,0,5.05-0.42,7.15-1.68c0.84-0.42,1.4-1.26,2.24-1.54c1.12,0.42,0.14,1.68,0.56,2.38
		c0.56,0.14,0.84-0.42,1.26-0.7c0.42-0.28,0.84-0.42,0.98,0.14c0.84,2.52,0.14,5.33-0.7,7.57c0.56,0.14,0.56-0.42,0.98-0.56
		c1.68-2.52,3.79-4.91,4.21-7.86c1.4-0.7,1.4,1.54,2.24,2.1c0.7-0.56,0.84-1.82,0.98-2.67c0.14-0.28,0.42-0.14,0.7,0
		c0.7,1.26,1.68,2.67,2.95,3.37c0.84,0.28,1.68,0.84,2.53,0.84c0-1.12-1.26-1.4-1.96-2.24c-0.28-0.84-0.84-1.54-0.84-2.67
		c0.28-0.56,0.98-0.56,1.4-0.84c0.14-0.84-0.28-1.68,0-2.67c0.14-1.12-0.7-3.37,0.98-3.93l0.14-2.81c-0.14-0.42-0.7-0.56-0.7-0.98
		c0-0.84,0.7-0.98,0.98-1.54c0.14-0.7,0.42-1.4,0.42-2.1c0-0.28-0.28-0.42-0.42-0.42c-0.84,0-0.7-0.98-0.98-1.4
		C79.71,73.71,78.31,72.17,76.21,72.03z M47.73,72.59c-0.14,0.14-0.28,0.28-0.28,0.7c-0.14,0.28,0,0.98,0.42,1.26
		c0.14,0.14,0.56,0.42,0.84,0.14c0.14-0.28,0-0.56,0-0.98C48.85,73.29,48.15,72.31,47.73,72.59z M44.22,73.15
		c-0.42,0.42,0.14,1.26,0,1.96c0.14,0.98,1.4,0.56,1.96,1.4c0.84,1.4-1.12,1.4-1.54,2.24c-0.56,0.98,0.84,0.56,1.12,1.4
		c0.84,0.42,1.4-0.56,2.24-0.42c0.84,0.28,1.4,1.26,1.54,2.24c0.84,1.96-0.84,3.65-1.68,5.19c1.4,0.28,2.38-1.12,3.51-1.54
		c0.98,0.28,0.14,1.54,0.84,2.1c0.7,0.42,1.26-0.42,1.96-0.28c2.1,0.14,1.96,2.52,3.23,3.65c0.28,0.14,0.56,0.14,0.84,0.14
		c1.26-1.12,2.1-2.52,3.37-3.79c0.42-0.42,0.84-0.98,0.7-1.54c-3.65-0.98-6.73-3.23-9.68-5.61c-1.26-1.54-2.81-3.51-4.63-4.35
		C46.89,74.55,45.91,73.01,44.22,73.15z M75.78,73.43c0.14,0,0.42,0.14,0.56,0.28c0.7,0.42,1.4,1.12,1.96,1.68
		c0.14,0.42-0.14,0.84-0.7,0.98c-0.84,0-1.68,0-2.24-0.7c-0.56-0.42-0.28-1.26-0.14-1.82C75.22,73.57,75.5,73.43,75.78,73.43z
		 M107.63,74.13c-0.14,0.28-0.14,0.56-0.14,0.98c-0.28,3.37-3.65,5.19-6.17,6.59c-4.77,2.24-10.66,5.47-11.22,11.36
		c-0.56,6.17,7.29,9.4,6.45,15.71c-0.28,1.26-1.4,2.1-2.24,2.95c-3.37,0.98-6.59-1.12-8.7-3.79c-2.67-3.23-4.07-7.01-5.05-10.94
		c-0.7-0.84-1.82-1.12-2.53-2.1c-1.54-0.7-1.4,1.54-2.95,1.54c-0.84,0.14-0.56-0.98-1.26-0.84L72,98.26
		c-0.42,0.98-1.68,1.68-1.82,2.81c0.56,0.98,2.24,0.56,3.23,0.98c1.54,0.28,2.67,1.68,3.93,2.38c2.38,2.1,3.09,5.05,2.67,8.28
		c-0.7,2.67,0.28,5.19,1.12,7.57c0.42,0.98-0.28,1.96-0.84,2.81c-0.28,1.4-0.7,2.95-1.4,4.21c-0.14,0.56-0.7,1.12-0.42,1.54
		c1.96-0.42,3.23-2.24,4.07-3.93c0.42-0.42,0.98,0,1.26,0.28c0.42,0.28,0.56-0.28,0.98-0.28c0.42-0.14,0.84,0.14,1.12,0.28
		c0.84,0.84,2.38,0.42,3.51,0.84c1.26,0.14,2.67,0.98,2.95,2.24c-0.14,0.98,0.42,1.96,0.28,3.23c-0.84,2.53-3.79,2.81-6.03,3.09
		c-0.42,0.28-1.12,0.56-0.98,1.12c0.28,0.42,0.7,0.7,1.12,0.84c0.98,0.56,1.4-0.84,2.38-0.7c0.7,0.28,0.14,0.98,0.56,1.54
		c0.56,0.14,0.98-0.14,1.68-0.14c0.84-0.14,1.26-0.84,1.4-1.68c0.42-0.98,1.68-1.26,2.24-2.24c0.42-0.28,1.12,0.14,1.54-0.28
		c-0.7-1.4-0.14-2.95,0.84-4.07c0.28-0.98,0-1.82-0.42-2.67v-1.54c-0.42-1.26-1.96-1.12-2.95-1.54c-0.98-0.84-2.67-1.4-2.95-2.95
		c0.14-0.14,0.28-0.56,0.42-0.42c1.4,0.56,2.95,0.28,4.35,0.14c0.42,0.14,0.98,0.28,0.98-0.28c-0.14-0.28-0.42-0.56-0.7-0.56
		c-2.24-0.7-4.63-0.7-6.31-2.38c-0.7-1.12-1.82-1.96-1.96-3.37c1.12-1.26,2.24,0.56,3.65,0.42c1.96,0.28,3.93-0.14,5.05-1.68
		c0.7-0.56,0.56-1.82,1.54-2.1c3.65-0.56,1.4-4.77,3.51-6.73c0.28-0.56,1.54-0.56,1.26-1.4c-1.12-0.14-2.1,0.42-3.23,0.56
		c-0.28-0.14-0.56-0.28-0.56-0.7c0.7-2.24,2.95-4.21,5.19-4.91c0.28,0,0.7-0.42,0.56-0.7c-2.67,0.14-5.47,0.42-7.29,2.67
		c-0.42,0.28-0.98,0.84-1.54,0.42c-0.42-0.42-0.42-1.26-0.28-1.96c0.14-1.26,1.12-2.24,2.1-3.09c1.26-0.42,1.82-1.82,2.24-2.95
		c-0.14-0.28-0.28-0.14-0.42-0.14c-0.84,0.56-1.96,0.98-2.95,1.26c-1.68,0.42-2.24,1.96-2.95,3.23c-0.28,0.14-0.7,0.14-0.98,0
		c-1.12-1.26-1.26-2.95-0.84-4.49c0.98-4.07,4.49-6.31,8-8c1.26-0.56,2.24,0.56,3.37,0.84c2.67,0.14,3.09-3.37,5.61-3.51
		c0.14-0.56-0.7-0.84-0.98-1.4c-0.28-0.98,0.84-1.68,0.56-2.81C108.61,75.68,108.61,74.55,107.63,74.13z M81.26,76.24
		c0.28-0.14,0.84,0,0.98,0.28c0,0.56-0.28,1.12-0.56,1.54c-0.28,0.28-0.7,0.14-0.84-0.28C80.69,77.22,80.83,76.52,81.26,76.24z
		 M77.05,81.15c0.28,0,0.56,0.14,0.7,0.28l-0.14,1.12c-1.12,1.26-1.26,3.37-2.95,4.21c-0.42,0.14-0.84-0.14-0.98-0.7
		c-0.14-0.7-0.28-1.82,0-2.52c0.84-0.42,0.98,1.12,1.54,0.42C75.64,82.97,76.49,82.13,77.05,81.15z M64.56,93.77
		c-0.42,0-0.7,0.14-1.12,0.28c-2.67,2.67-5.47,5.19-8.98,6.59c-2.24,0.42-3.93,1.82-6.03,2.24c-1.12,0.56-2.81,0.84-2.95,2.38
		c0.56,0.28,1.12,0.42,1.82,0.42c0.84,0,1.12-0.98,1.54-1.54c0.28-0.28,0.7-0.14,0.98,0.14c0.28,0.84,1.12,0.98,1.68,1.26
		c0.56,0,0.84-0.7,0.98-1.12c0.56-0.98,1.82-1.12,2.95-0.98c0.42-0.28,1.12-0.56,1.54-0.42c1.26,0.28,0.56,1.82,0.7,2.81
		c0.28,0.28,0.56,0,0.84-0.14c0.98-0.98,1.54-2.24,2.1-3.51c0.28-0.28,0.56-0.84,1.12-0.7c1.26,1.68,1.54-0.84,2.52-1.12
		c0.7-0.28,1.82,0.28,2.52-0.42c0.7-1.26,0.84-2.95,0.98-4.35c-0.28-0.98-1.26-0.14-2.1-0.28C64.84,95.03,64.84,94.33,64.56,93.77z
		 M46.33,99.8l-0.28,0.28c0,0.56-0.14,1.26,0.28,1.68c0.84,0.28,1.82,0,2.38-0.28c0-0.84-0.98-0.98-1.54-1.54
		C47.03,99.94,46.61,99.66,46.33,99.8z M76.77,107.94l-3.51,0.98c-3.51,0.14-7.57,0-9.54,3.23l-1.96,0.28
		c-1.26,0.56-2.52,1.54-4.07,1.82c-0.42,0.28-1.12,0.14-1.26,0.7c0.84,0.7,2.24,0.28,3.23,0.28c0.56,0.14,0.7,0.84,0.84,1.4
		c0.56,0.28,0.98-0.42,1.54-0.28c0.28,0.14,0.56,0.42,0.7,0.84c0.28,1.82,2.52,2.24,3.23,3.65c0.28,0.56,0.14,1.4-0.28,1.82
		c-0.56,0.7-1.68,0.56-2.52,0.42c-1.68,0-3.09-0.42-4.63,0.14c-2.38,0.42-4.63-1.12-6.73,0.28c-0.14,0.14-0.28,0.42-0.14,0.7
		l2.38,0.98c0.28,0.42-0.14,0.98-0.14,1.4l1.26,0.28c0.84,0.7,1.82-0.14,2.52-0.56c0.84-0.56,1.68,0.14,2.38,0.42
		c0.42,0.28,1.12-0.14,1.54,0.42c0.42,0.56,0.14,1.82,1.12,1.68c0.28-0.7,0.7-1.4,1.26-1.82c1.68-1.4,3.79-0.56,5.89-0.84
		c1.4-0.14,0.98-1.68,2.1-2.24c0.7-1.12-0.56-1.82-1.12-2.81c-0.42-1.12,0.28-2.38,0.98-3.23c1.4-0.28,1.26,1.54,1.82,2.38
		c0.28,0.14,0.56,0.56,0.98,0.28c0-1.12,0.14-2.1,0.14-3.37c0.42-1.68,1.54-3.09,2.81-4.21c0.56-0.84,0.56-1.54,0.7-2.67
		C78.17,109.48,77.89,108.08,76.77,107.94z M54.46,120.14c-0.28,0-0.56,0-0.84,0.14c-0.14,0.42,0.14,1.12,0.56,1.54
		c0.7,0,1.4,0.28,2.1-0.14C55.87,120.99,55.16,120.28,54.46,120.14z M86.45,132.63l-0.28,0.28c0.14,0.14,0.14,0.28,0.42,0.28
		c0.14,0,0.56,0.14,0.56-0.28C87.15,132.77,86.73,132.49,86.45,132.63z"/>
	<polygon id="XMLID_52_" class="st0" points="24.87,59.97 130.49,59.97 130.49,67.26 24.87,67.26 24.87,59.97 24.87,59.97 	"/>
	<polygon id="XMLID_53_" class="st0" points="24.87,59.97 24.87,60.25 130.35,60.25 130.35,67.12 25.15,67.12 25.01,59.97 
		24.87,59.97 24.87,60.25 24.87,60.25 24.87,60.25 24.87,59.83 24.87,59.83 24.87,60.25 24.87,59.97 24.87,60.25 24.87,60.25 
		24.87,59.83 24.87,59.83 24.87,59.83 24.72,59.83 24.72,67.4 130.63,67.4 130.63,59.83 24.87,59.83 24.87,60.25 	"/>
	<path id="XMLID_58_" class="st2" d="M103.42,61.23h12.06v4.63h-12.06V61.23z M77.33,61.23h11.92v4.63H77.33V61.23z M51.1,61.23
		h12.06v4.63H51.1V61.23z M26.13,61.23h10.94v4.63H26.13V61.23L26.13,61.23z"/>
	<path id="XMLID_59_" class="st0" d="M42.12,34.44c3.51-1.54,7.43-0.42,11.36-0.7c0.98,0.28,2.52-0.56,3.09,0.56
		c0,1.12,0,2.24,0.14,3.37c0.42,0.84,1.54,0.14,2.1,0.56c0.42,0.28,0.84,0.42,0.84,0.84c0.28,0.56,0.14,1.12-0.28,1.54
		c-0.7,0.84-1.68,0.56-2.52,0.7l-0.28,0.42c0.14,2.1-0.42,3.93,0,5.89c-0.14,0.42-0.28,0.98,0.28,1.26c0.98,0,1.96,0,2.67,0.7
		c0.28,0.56,0.28,1.12,0.14,1.68c-0.42,2.1-3.79-0.28-3.37,2.24c0,0.98,0.28,2.24-0.14,3.09c-3.93,0-7.86-0.28-11.5,0
		c-0.7,0.56-1.54,0.98-2.38,0.98c-0.84-0.14-1.4-0.56-1.96-0.98c-3.51-0.14-7.01-0.14-10.24-0.28c-1.12-0.98-0.28-2.38-0.7-3.79
		c-0.56-0.7-1.4-0.14-2.1-0.56c-0.56,0-0.7-0.56-0.98-0.98c0-0.84,0-1.4,0.56-1.96c0.56-0.42,1.4-0.42,2.1-0.42l0.42-0.42
		c-0.28-2.38,0.42-4.63-0.14-7.15c-0.42-0.56-0.98,0-1.4-0.42c-0.7-0.14-1.26-0.42-1.54-1.12c-0.14-0.56-0.28-1.12,0.28-1.68
		c0.84-0.84,2.1,0.14,2.81-0.7l0.28-3.37c0.56-0.98,1.96-0.56,2.95-0.56c1.68-0.42,3.93-0.14,5.75,0
		C39.73,33.73,41,34.02,42.12,34.44z"/>
	<path id="XMLID_60_" class="st0" d="M42.12,34.44l0.14,0.14c1.54-0.7,3.09-0.84,4.63-0.84c1.82,0,3.65,0.14,5.47,0.14
		c0.42,0,0.7,0,1.12,0v-0.14v0.14h0.56c0.42,0,0.98-0.14,1.4-0.14c0.56,0,0.84,0.14,1.12,0.56l0.14-0.14h-0.14
		c0,1.12,0,2.24,0.14,3.37l0,0l0,0c0.14,0.42,0.7,0.56,1.12,0.56c0.14,0,0.42,0,0.56,0c0.28,0,0.42,0,0.56,0.14l0,0l0,0
		c0.42,0.28,0.7,0.42,0.7,0.7l0,0l0,0l0.14,0.42c0,0.28-0.14,0.7-0.28,0.98l0.14,0.14l-0.14-0.14c-0.56,0.7-1.4,0.42-2.52,0.7h-0.14
		l-0.28,0.56l0,0l0,0c0,0.28,0,0.42,0,0.7c0,1.26-0.14,2.38-0.14,3.51c0,0.56,0,1.12,0.14,1.68h0.14h-0.14
		c0,0.14-0.14,0.42-0.14,0.7c0,0.28,0.14,0.7,0.42,0.84l0,0l0,0c0.98,0,1.96,0,2.52,0.56l0.14-0.14l-0.14,0.14
		c0.14,0.28,0.28,0.56,0.28,0.84c0,0.28,0,0.42-0.14,0.7l0,0l0,0c-0.14,0.42-0.28,0.56-0.42,0.7c-0.28,0.14-0.56,0.14-0.84,0.14
		c-0.28,0-0.56,0-0.84,0c-0.28,0-0.7,0-0.84,0.14c-0.28,0.14-0.42,0.42-0.42,0.98v0.42h0.14h-0.14c0,0.56,0,1.12,0,1.68
		c0,0.42,0,0.98-0.14,1.26l0.14,0.14l0,0c-2.81,0-5.61-0.14-8.42-0.14c-0.98,0-2.1,0-3.09,0.14l0,0l0,0
		c-0.56,0.56-1.4,0.84-2.38,0.98v0.14v-0.14c-0.7-0.14-1.26-0.56-1.96-0.98l0,0l0,0c-3.51-0.14-7.01-0.14-10.38-0.28v0.14l0.14-0.14
		c-0.42-0.42-0.56-0.84-0.56-1.4c0-0.42,0-0.84,0-1.26c0-0.28,0-0.7-0.14-0.98l0,0l0,0c-0.28-0.42-0.84-0.42-1.12-0.42h-0.28
		c-0.28,0-0.42,0-0.7-0.14l0,0l0,0c-0.14,0-0.28-0.14-0.42-0.28c-0.14-0.14-0.28-0.42-0.42-0.56l-0.14,0.14h0.14
		c0-0.84,0-1.4,0.56-1.82l-0.14-0.14l0.14,0.14c0.42-0.42,1.26-0.28,1.96-0.42l0,0l0.42-0.42l0,0V48.6c0-0.42,0-0.84,0-1.12
		c0-1.12,0.14-2.38,0.14-3.51c0-0.84,0-1.54-0.28-2.38l0,0l0,0c-0.28-0.28-0.56-0.42-0.84-0.28h-0.14c-0.28,0-0.42,0-0.56-0.14l0,0
		l0,0c-0.7-0.14-1.12-0.28-1.4-0.98h-0.14h0.14c0-0.28-0.14-0.56-0.14-0.7c0-0.28,0.14-0.42,0.28-0.7l0,0l0,0
		c0.28-0.28,0.56-0.28,0.84-0.28c0.28,0,0.56,0,0.84,0c0.42,0,0.84-0.14,1.12-0.42l0,0l0.28-3.51h-0.14l0.14,0.14
		c0.28-0.42,0.56-0.56,1.12-0.56s1.12,0.14,1.68,0.14l0,0l0,0c0.56-0.14,1.26-0.14,1.96-0.14c1.26,0,2.52,0.14,3.65,0.14v-0.14v0.14
		c1.26,0,2.52,0.28,3.65,0.84h0.14h0.14L42.12,34.44l0.14-0.14c-1.12-0.56-2.52-0.7-3.79-0.84l0,0c-1.12,0-2.52-0.14-3.65-0.14
		c-0.7,0-1.4,0-2.1,0.14v0.14v-0.14c-0.42,0-1.12-0.14-1.68-0.14c-0.56,0-1.12,0.14-1.4,0.7l0,0l-0.28,3.51h0.14l-0.14-0.14
		c-0.28,0.28-0.42,0.28-0.84,0.28c-0.28,0-0.56,0-0.84,0c-0.42,0-0.84,0.14-1.12,0.42l0.14,0.14l-0.14-0.14
		c-0.42,0.28-0.42,0.7-0.42,0.98c0,0.28,0.14,0.56,0.14,0.84l0,0l0,0c0.28,0.84,0.98,1.12,1.68,1.26v-0.14l-0.14,0.14
		c0.28,0.14,0.56,0.28,0.7,0.28h0.14c0.28,0,0.42,0,0.56,0.14l0.14-0.14h-0.14c0.14,0.84,0.14,1.54,0.14,2.38
		c0,1.12-0.14,2.38-0.14,3.51c0,0.42,0,0.84,0,1.26h0.14l-0.14-0.14l-0.42,0.42l0.14,0.14v-0.14c-0.7,0.14-1.54,0-2.1,0.42l0,0l0,0
		c-0.7,0.56-0.7,1.26-0.7,2.1l0,0l0,0c0.14,0.14,0.28,0.42,0.42,0.56c0.14,0.14,0.42,0.42,0.7,0.42v-0.14l-0.14,0.14
		c0.28,0.14,0.56,0.14,0.84,0.14h0.28c0.42,0,0.7,0,0.84,0.28l0.14-0.14h-0.14c0.14,0.28,0.14,0.56,0.14,0.84c0,0.42,0,0.84,0,1.26
		c0,0.56,0.14,1.26,0.7,1.68l0,0h0.14c3.37,0,6.73,0,10.24,0.28V56.6l-0.14,0.14c0.7,0.42,1.26,0.84,2.1,0.98l0,0l0,0
		c0.98-0.14,1.82-0.42,2.52-1.12l-0.14-0.14v0.14c0.98,0,1.96-0.14,3.09-0.14c2.81,0,5.61,0.14,8.42,0.14h0.14v-0.14
		c0.14-0.42,0.28-0.98,0.28-1.4c0-0.56,0-1.26,0-1.68l0,0l0,0v-0.28c0-0.42,0.14-0.56,0.28-0.56c0.14-0.14,0.42-0.14,0.7-0.14
		c0.28,0,0.56,0,0.84,0c0.28,0,0.7,0,0.98-0.14c0.28-0.14,0.56-0.42,0.7-0.98h-0.14h0.14c0-0.28,0.14-0.56,0.14-0.84
		c0-0.42-0.14-0.7-0.28-1.12l0,0l0,0c-0.84-0.7-1.82-0.7-2.81-0.7v0.14l0.14-0.14c-0.28-0.14-0.28-0.28-0.28-0.56
		c0-0.14,0-0.42,0.14-0.56l0,0l0,0c-0.14-0.56-0.14-1.12-0.14-1.68c0-1.12,0.14-2.38,0.14-3.51c0-0.28,0-0.42,0-0.7h-0.14l0.14,0.14
		l0.28-0.42l-0.14-0.14v0.14c0.84-0.28,1.82,0.14,2.67-0.84l0,0l0,0c0.14-0.42,0.28-0.7,0.28-1.12c0-0.14,0-0.42-0.14-0.56
		l-0.14,0.14h0.14c-0.14-0.56-0.56-0.84-0.98-0.98l-0.14,0.14l0.14-0.14c-0.28-0.14-0.56-0.14-0.84-0.14c-0.14,0-0.42,0-0.56,0
		c-0.42,0-0.56,0-0.7-0.28l-0.14,0.14h0.14c-0.14-1.12-0.14-2.24-0.14-3.37l0,0l0,0c-0.28-0.56-0.98-0.7-1.54-0.7
		c-0.42,0-0.98,0.14-1.4,0.14h-0.42l0,0l0,0c-0.42,0-0.7,0-1.12,0c-1.82,0-3.65-0.14-5.47-0.14C45.2,33.59,43.66,33.73,42.12,34.44
		L42.12,34.44l0.14-0.14L42.12,34.44z"/>
	<path id="XMLID_70_" class="st2" d="M43.8,54.78c0.14,0.56,0.14,1.26-0.42,1.54c-0.28,0.42-0.84,0.42-1.26,0.28
		c-0.42,0-0.56-0.56-0.56-0.98c-0.14-0.84,0.7-1.12,1.12-1.68C43.1,54.07,43.52,54.5,43.8,54.78 M32.16,34.86
		c-0.7,0.42-1.54,1.4-1.26,2.24c0.28,6.03,0,11.36,0.28,16.97l0.56,0.56c2.81,0,5.89-0.28,8.56,0.28l0.14,0.42
		c-0.7,0.28-1.54,0.14-2.38,0.14l-7.29-0.14c-0.56-0.42-0.28-1.4-0.28-1.96c0-0.7,0.28-1.54-0.56-1.96
		c-0.98-0.28-1.96,0.14-2.67-0.7c0.56-1.4,2.81-0.28,3.23-1.82c0.28-2.67-0.28-5.33-0.14-7.86c-0.28-1.4-1.82-0.98-2.95-1.26
		c-0.14-0.14-0.28-0.42-0.28-0.7c0.84-0.84,2.52,0.14,3.23-1.12c0.28-1.12,0-2.24,0.28-3.23c0.42-0.42,0.98-0.42,1.54-0.28
		L32.16,34.86L32.16,34.86z M55.59,34.86c0.28,1.12-0.28,2.67,0.42,3.79c0.7,0.42,1.82,0.28,2.53,0.42c0.28,0.28,0.28,0.7,0.14,0.98
		c-0.84,0.84-2.38-0.28-2.95,1.12c0,2.81-0.14,5.47,0,8.42l0.42,0.42c0.98,0.14,2.1-0.28,2.67,0.42c0,0.42,0,0.84-0.42,0.98
		c-0.98,0.28-2.24-0.28-2.81,0.7c-0.28,1.12,0.14,2.24-0.28,3.37l-0.56,0.28l-10.1-0.14c-0.28-0.14,0-0.28,0-0.42l0.98-0.42h8.14
		c0.84-0.28,0.84-1.26,0.98-1.96c-0.14-4.07,0-7.57-0.14-11.36c0-1.96,0.28-3.79-0.14-5.61c-0.14-0.42-0.7-0.7-0.84-1.26
		C54.6,34.44,55.3,34.44,55.59,34.86 M53.48,53.79c-0.28,0.42-0.84,0.28-1.26,0.42h-2.38c-1.82-0.14-3.79-0.28-5.33,0.14
		c-0.28,0-0.56-0.28-0.56-0.56c0.28-0.7,0.98-0.42,1.54-0.7c2.24,0.14,4.91,0,7.01,0C52.92,53.09,53.2,53.37,53.48,53.79
		 M54.18,36.26c-0.14,5.75,0,11.5-0.14,16.69c-0.14,0.28-0.42,0-0.7-0.28c-0.42-0.84-0.14-1.96-0.14-2.81c-0.28-4.63,0-9.4,0-14.17
		C53.62,35.42,54.04,35.98,54.18,36.26 M41.7,35.28l0.28,0.7c0.14,4.77,0.14,9.68,0.14,14.73l-0.14,1.82
		c-1.26,0-2.38-0.56-3.79-0.42c-1.4-0.14-2.95,0.14-4.07-0.28c-0.7-1.68-0.28-3.23-0.42-5.05c0.14-3.65,0.14-8,0.14-11.78
		c0-0.28,0.42-0.42,0.56-0.42C36.93,34.72,39.73,34.02,41.7,35.28 M52.36,35c0,5.75,0,11.36,0,16.97c-2.81,0.28-6.03-0.28-8.98,0.56
		c-0.56-0.56-0.14-1.54-0.28-2.24c-0.14-1.82,0-3.93-0.14-5.89c0.14-2.81-0.14-5.89,0.14-8.7c0.42-0.84,1.4-1.12,2.38-1.12
		l6.73,0.14L52.36,35L52.36,35L52.36,35z M41.42,53.51c0,0.42-0.28,0.7-0.7,0.84c-2.24-0.56-4.77-0.14-7.29-0.42l-0.14-0.14
		c0.14-0.42,0.56-0.84,0.98-0.84C36.93,52.95,39.17,52.95,41.42,53.51 M32.86,35.56c0.28,5.75-0.14,11.36,0.14,16.97
		c-0.14,0.28-0.42,0.7-0.7,0.7c-0.42-1.82-0.42-3.51-0.28-5.33c-0.14-3.65,0-7.72,0-11.36C32.02,36.12,32.44,35.7,32.86,35.56"/>
	<path id="XMLID_71_" class="st0" d="M90.51,33.73c0.42-0.14,0.84,0.28,1.26,0.56c0.42,1.4-0.14,2.52,0.28,3.79
		c0.98,0.42,2.24,0.14,2.81,1.26c0.28,0.56,0.28,1.4-0.14,1.82c-0.7,0.98-2.38,0-2.81,1.12c-0.14,2.53-0.28,4.35,0,6.73
		c0.7,0.7,1.96,0.14,2.67,1.12c0.42,0.42,0.56,0.98,0.42,1.54c-0.56,0.98-1.82,0.98-2.81,1.12c-0.42,0.42,0,0.98-0.28,1.54
		c-0.42,0.98,0.56,2.1-0.56,2.67c-2.95,0.42-5.75-0.14-8.7,0.14h-2.81c-0.84,0.56-1.68,1.26-2.67,0.7l-1.82-0.84
		c-2.1,0-4.21-0.14-6.31,0c-1.4-0.14-3.37,0.56-4.35-0.84c0-1.12,0.28-2.24,0-3.37c-1.12-0.42-2.81,0.14-3.51-1.26
		c-0.14-0.42,0-0.98,0.14-1.4c0.84-1.12,2.52-0.14,3.37-1.12v-3.09c0.28-1.54-0.14-2.67-0.14-4.21c-1.12-0.42-2.95,0.14-3.09-1.54
		c-0.14-0.84,0.42-1.54,1.12-1.68c0.7-0.28,1.68,0.14,2.1-0.56l0.28-3.37c0.84-1.4,2.95-0.56,4.21-0.84l6.45,0.14
		c0.98,0.14,1.96,1.12,2.95,0.56C82.24,32.75,86.59,34.16,90.51,33.73z"/>
	<path id="XMLID_72_" class="st0" d="M90.51,33.73v0.14h0.14c0.28,0,0.7,0.28,0.98,0.42l0.14-0.14h-0.14
		c0.14,0.42,0.14,0.84,0.14,1.26c0,0.42,0,0.7,0,1.12c0,0.42,0,0.84,0.14,1.4v0.14h0.14c0.56,0.14,1.12,0.28,1.54,0.28
		c0.56,0.14,0.84,0.28,1.12,0.84c0.14,0.14,0.14,0.42,0.14,0.7c0,0.28-0.14,0.7-0.28,0.84l0,0l0,0c-0.28,0.42-0.84,0.42-1.4,0.42
		c-0.28,0-0.56,0-0.84,0.14c-0.28,0.14-0.56,0.28-0.7,0.56l0,0l0,0c-0.14,1.4-0.14,2.52-0.14,3.79c0,0.98,0,1.96,0.14,3.09v0.14l0,0
		c0.42,0.42,0.98,0.42,1.4,0.56c0.56,0,0.84,0.14,1.12,0.56l0,0l0,0c0.28,0.28,0.42,0.56,0.42,0.98v0.42h0.14l-0.14-0.14
		c-0.42,0.84-1.68,0.84-2.67,1.12l0,0l0,0c-0.28,0.14-0.28,0.42-0.28,0.7c0,0.28,0,0.42,0,0.7v0.28l0,0l0,0
		c-0.14,0.28-0.14,0.42-0.14,0.7c0,0.42,0.14,0.84,0.14,1.12c0,0.42-0.14,0.56-0.42,0.84l0.14,0.14v-0.14
		c-0.84,0.14-1.68,0.14-2.52,0.14c-1.54,0-3.09-0.14-4.77-0.14c-0.56,0-0.98,0-1.54,0v0.14v-0.14l-2.95,0.14l0,0
		c-0.56,0.42-1.26,0.84-1.82,0.84c-0.14,0-0.42,0-0.7-0.14l0,0l-1.82-0.84l0,0l0,0c-0.42,0-0.84,0-1.26,0c-1.26,0-2.38,0-3.65,0
		c-0.42,0-0.98,0-1.4,0v0.14v-0.14h-0.28c-0.7,0-1.4,0.14-1.96,0.14c-0.84,0-1.54-0.14-1.96-0.84l-0.14,0.14h0.14
		c0-0.7,0.14-1.4,0.14-2.1c0-0.42,0-0.98-0.14-1.4v-0.14h-0.14c-0.56-0.14-1.26-0.14-1.96-0.28c-0.7-0.14-1.12-0.28-1.4-0.84
		l-0.14,0.14h0.14v-0.28c0-0.28,0.14-0.7,0.14-0.98H61.2l0.14,0.14c0.28-0.42,0.84-0.56,1.54-0.56c0.56,0,1.4,0,1.82-0.56l0,0v-3.23
		h-0.14h0.14c0-0.42,0.14-0.84,0.14-1.26c0-0.98-0.14-1.96-0.14-2.95v-0.14h-0.14c-0.56-0.28-1.4-0.14-1.96-0.28
		c-0.56-0.14-0.98-0.28-1.12-0.98l0,0l0,0v-0.28c0-0.7,0.42-1.12,0.98-1.26l0,0l0,0c0.28-0.14,0.7,0,1.12-0.14
		c0.42,0,0.84-0.14,1.12-0.56l0,0l0.28-3.37h-0.14L64.98,35c0.42-0.56,0.98-0.7,1.68-0.7c0.56,0,1.26,0.14,1.82,0.14
		c0.14,0,0.42,0,0.56,0V34.3v0.14l6.45,0.14v-0.14v0.14c0.7,0.14,1.4,0.7,2.24,0.7c0.28,0,0.56,0,0.84-0.28l-0.14-0.14L78.59,35
		c1.54-0.56,3.09-0.7,4.63-0.7c1.82,0,3.79,0.28,5.75,0.28c0.56,0,1.26,0,1.82-0.14l0,0l0,0L90.51,33.73v-0.14
		c-0.56,0-1.26,0.14-1.82,0.14c-1.82,0-3.79-0.28-5.75-0.28c-1.68,0-3.23,0.14-4.77,0.84l0,0l0,0c-0.14,0.14-0.42,0.14-0.56,0.14
		c-0.7,0-1.4-0.56-2.24-0.7l0,0l-6.59-0.14l0,0h-0.42c-0.56,0-1.12-0.14-1.82-0.14c-0.84,0-1.54,0.14-2.1,0.98l0,0l-0.28,3.37h0.14
		l-0.14-0.14c-0.14,0.28-0.42,0.28-0.7,0.28c-0.42,0-0.84,0-1.26,0.14v0.14v-0.14c-0.84,0.14-1.4,0.84-1.4,1.54v0.28h0.14h-0.14
		c0.14,0.98,0.7,1.26,1.4,1.4c0.7,0.14,1.4,0.14,1.82,0.28l0.14-0.14H64c0,1.12,0.14,1.96,0.14,2.95c0,0.42,0,0.7-0.14,1.12l0,0
		v3.23h0.14L64,48.6c-0.28,0.42-0.84,0.42-1.54,0.42c-0.7,0-1.4,0-1.82,0.7l0,0l0,0c-0.14,0.28-0.28,0.7-0.28,1.12v0.42l0,0l0,0
		c0.28,0.84,0.98,0.98,1.68,1.12c0.7,0.14,1.4,0,1.82,0.28v-0.14h-0.14c0.14,0.42,0.14,0.84,0.14,1.26c0,0.7-0.14,1.4-0.14,2.1l0,0
		l0,0c0.56,0.84,1.4,0.98,2.24,0.98c0.7,0,1.4-0.14,1.96-0.14h0.28l0,0l0,0c0.42,0,0.98,0,1.4,0c1.26,0,2.38,0,3.65,0
		c0.42,0,0.84,0,1.26,0V56.6l-0.14,0.14l1.82,0.84l0.14-0.14l-0.14,0.14c0.28,0.14,0.56,0.28,0.84,0.28c0.84,0,1.54-0.56,2.1-0.98
		l-0.14-0.14v0.14h2.81l0,0c0.56,0,0.98,0,1.54,0c1.54,0,3.09,0.14,4.77,0.14c0.84,0,1.68,0,2.52-0.14l0,0l0,0
		c0.56-0.28,0.7-0.7,0.7-1.12c0-0.42-0.14-0.7-0.14-1.12l0.14-0.56l-0.14-0.14l0.14,0.14l0.14-0.42c0-0.28,0-0.42,0-0.7l0.14-0.28
		l-0.14-0.14v0.14c0.98-0.28,2.24-0.14,2.95-1.26l0,0l0,0v-0.42c0-0.42-0.14-0.84-0.42-1.12l-0.14,0.14l0.14-0.14
		c-0.42-0.56-0.98-0.7-1.4-0.7c-0.56,0-0.98-0.14-1.26-0.42l-0.14,0.14h0.14c-0.14-1.12-0.14-2.1-0.14-3.09c0-1.12,0-2.38,0.14-3.79
		h-0.14l0.14,0.14c0.14-0.28,0.28-0.28,0.42-0.42c0.28-0.14,0.7-0.14,1.12-0.14s0.84-0.14,1.26-0.56l-0.14-0.14l0.14,0.14
		c0.28-0.28,0.28-0.7,0.28-1.12c0-0.28,0-0.56-0.14-0.84c-0.28-0.7-0.84-0.84-1.4-0.98c-0.56-0.14-1.12-0.14-1.54-0.28l-0.14,0.14
		h0.14c-0.14-0.42-0.14-0.84-0.14-1.26c0-0.42,0-0.7,0-1.12c0-0.42,0-0.84-0.14-1.4v-0.14l0,0c-0.28-0.14-0.7-0.56-1.26-0.56h-0.14
		L90.51,33.73v-0.14V33.73z"/>
	<path id="XMLID_82_" class="st2" d="M90.93,35c0,1.26-0.14,2.38,0.28,3.79c0.84,0.84,3.23-0.28,2.81,1.54
		c-0.84,0.56-1.82,0.14-2.67,0.28l-0.28,0.28c-0.42,2.81,0.28,5.75,0,8.42c0,0.28,0.28,0.84,0.7,0.84c0.84,0.14,1.96-0.42,2.24,0.56
		c-0.14,1.68-2.38,0.14-2.95,1.54c-0.28,1.26,0.42,2.38-0.14,3.65l-0.42,0.28c-3.65-0.14-7.29-0.14-10.66-0.14l0.14-0.42l0.7-0.42
		c2.81-0.28,6.03,0,8.98-0.28c0.42-0.14,0.84-0.42,0.7-0.84c0-5.47,0.14-11.08,0.14-17.25c-0.14-0.84-0.98-1.4-1.12-2.1
		C89.81,34.58,90.65,34.3,90.93,35 M67.23,34.72c-0.14,0.56-0.7,0.84-0.98,1.4c-0.42,1.12,0.14,2.24-0.14,3.51
		c0.14,4.91,0,9.54,0.14,14.45c0,0.42,0.28,0.84,0.56,0.84l7.72,0.14c0.42,0,0.98,0.28,1.26,0.56c-0.14,0.42-0.7,0.28-1.12,0.42
		c-2.81,0-5.89,0.14-8.7-0.28l-0.28-0.28c-0.14-1.26,0-2.67-0.56-3.79c-0.84-0.42-1.96,0-2.81-0.28c-0.42-0.28-0.28-0.84,0-1.12
		c0.98-0.56,2.67,0.28,3.23-0.98c0-2.81,0.14-5.47,0-8.28c-0.84-1.12-2.38-0.14-3.09-1.12c0.28-1.68,2.52-0.28,3.23-1.54L65.97,35
		C66.11,34.44,66.67,34.58,67.23,34.72 M78.59,55.48c0,0.56-0.14,1.26-0.7,1.26c-0.56,0-1.26,0-1.26-0.7
		c0.14-0.56,0.56-0.98,1.12-1.26C78.17,54.64,78.45,55.2,78.59,55.48 M68.35,35.7c0.28,4.91-0.28,9.4,0,14.31
		c-0.42,1.12,0.56,2.81-1.12,3.09c-0.28-4.91,0-10.24-0.28-15.57c-0.14-0.84,0.42-1.68,1.12-2.1L68.35,35.7L68.35,35.7L68.35,35.7z
		 M89.53,36.54c0,5.47,0.14,11.36-0.28,16.55c-0.28,0.14-0.7-0.28-0.7-0.56c0-2.24-0.28-4.49-0.14-6.73
		c0.14-3.09-0.28-6.73,0.14-9.96C88.97,35.7,89.53,36.12,89.53,36.54 M76.49,53.51c0.28,0,0.7,0.42,0.42,0.7l-0.56,0.56
		c-2.52-0.98-5.61-0.28-8.28-0.7c0.28-0.42,0.42-0.7,0.84-0.98C71.3,53.23,73.96,52.81,76.49,53.51 M87.85,53.09
		c0.42,0.28,0.84,0.56,0.84,0.98l-0.42,0.14c-2.95,0.14-6.03-0.28-8.84,0.42c-0.42,0.14-0.98,0-0.98-0.42
		c0.28-0.7,1.12-0.84,1.82-0.98C82.8,52.95,85.32,53.09,87.85,53.09 M87.57,35.14c-0.14,5.61,0,11.36-0.14,16.97l-0.28,0.14
		c-3.09,0.28-6.03-0.56-8.84,0.56c-0.56-0.28-0.14-1.12-0.28-1.68V36.26c0-0.56,0.28-0.98,0.84-1.12c0.84-0.56,1.82-0.28,2.95-0.42
		l5.61,0.14L87.57,35.14L87.57,35.14z M77.19,46.5c0.28-2.95,0.14-6.03,0.14-8.84c0-0.84,0.14-1.82-0.56-2.38
		c-2.1-0.98-4.91-0.42-7.29-0.56c-0.14,0.14-0.42-0.14-0.42,0.28c0,5.61-0.14,10.94-0.14,16.55l0.14,0.7
		c1.68,0.28,3.51,0.14,5.19,0.14c0.98,0.14,1.82,0.42,2.67,0.56c0.14-1.96,0.28-3.51,0.14-5.33L77.19,46.5L77.19,46.5z"/>
	<path id="XMLID_83_" class="st0" d="M125.72,33.87c0.84,1.12,0.28,2.53,0.56,3.93c0.98,0.84,2.95,0,3.09,1.68
		c0.14,0.7-0.28,1.26-0.7,1.68c-0.7,0.7-1.82,0-2.38,0.7c-0.28,2.1,0,4.49,0,7.01c0.7,0.42,1.54,0.28,2.24,0.7
		c0.42,0.42,0.7,0.84,0.7,1.4c-0.14,0.56-0.42,0.98-0.98,1.26c-0.56,0.28-1.54,0-1.82,0.84c-0.28,1.12,0.14,2.38-0.14,3.65
		c-0.84,0.42-1.68,0.42-2.52,0.42l-8.42-0.14c-0.84,0.42-1.68,1.26-2.67,0.84c-1.82-1.12-4.21-0.84-6.31-0.84l-6.31-0.14
		c-1.12-0.98-0.28-2.67-0.7-3.93c-0.42-0.7-1.54-0.42-2.24-0.84c-0.7-0.28-0.84-0.98-0.7-1.54c0-0.7,0.7-1.12,1.4-1.26
		c0.56-0.28,1.4,0.28,1.68-0.56c0-2.24-0.14-4.35-0.14-6.45c-0.14-1.26-1.82-0.56-2.52-0.98c-0.7-0.42-0.7-1.26-0.56-1.96
		c0.56-1.26,1.96-0.98,3.09-1.26l0.14-0.42l0.14-3.79l0.42-0.28l9.82,0.28c1.12,0,2.1,0.56,3.23,0.84c2.1-1.54,5.19-0.84,7.72-1.26
		C122.22,33.87,123.9,33.59,125.72,33.87z"/>
	<path id="XMLID_84_" class="st0" d="M125.72,33.87l-0.14,0.14C126,34.44,126,35,126,35.7c0,0.42,0,0.84,0,1.4c0,0.28,0,0.56,0,0.7
		v0.14l0,0c0.56,0.42,1.26,0.42,1.96,0.56c0.56,0.14,0.98,0.28,1.12,1.12l0,0l0,0v0.28c0,0.42-0.28,0.84-0.56,1.26l0.14,0.14
		l-0.14-0.14c-0.28,0.28-0.56,0.28-1.12,0.28c-0.42,0-0.98,0-1.26,0.42l0,0l0,0c-0.14,0.7-0.14,1.54-0.14,2.24
		c0,1.54,0.14,3.09,0.14,4.77v0.14h0.14c0.7,0.42,1.54,0.42,2.24,0.7l0.14-0.14h-0.28c0.42,0.42,0.7,0.84,0.7,1.26h0.14h-0.14
		c0,0.56-0.42,0.84-0.84,1.12l0,0l0,0c-0.28,0.14-0.56,0.14-0.98,0.14s-0.84,0.28-0.98,0.7l0,0l0,0c-0.14,0.42-0.14,0.84-0.14,1.12
		c0,0.56,0,0.98,0,1.54c0,0.28,0,0.56-0.14,0.98h0.14L126,56.32c-0.7,0.42-1.68,0.42-2.52,0.42l-8.42-0.14l0,0
		c-0.7,0.42-1.26,0.84-1.96,0.84c-0.14,0-0.42,0-0.56-0.14l-0.14,0.14l0.14-0.14c-1.26-0.84-2.81-0.84-4.35-0.84
		c-0.42,0-0.84,0-1.26,0c-0.28,0-0.56,0-0.7,0l-6.31-0.14v0.14l0.14-0.14c-0.42-0.42-0.56-0.84-0.56-1.54
		c0-0.42,0.14-0.98,0.14-1.54c0-0.28,0-0.56-0.14-0.84l0,0l0,0c-0.28-0.42-0.7-0.56-1.12-0.7c-0.42,0-0.84-0.14-1.26-0.28l0,0l0,0
		c-0.42-0.14-0.56-0.7-0.56-1.12v-0.28l0,0l0,0c0-0.56,0.56-0.84,1.26-0.98l0,0l0,0c0.14,0,0.28-0.14,0.42-0.14h0.28
		c0.14,0,0.42,0,0.56-0.14c0.14-0.14,0.28-0.28,0.42-0.56l0,0l0,0c0-1.82-0.14-3.51-0.14-5.19c0-0.42,0-0.84,0-1.26l0,0l0,0
		c0-0.42-0.28-0.56-0.42-0.84c-0.42-0.14-0.84-0.14-1.26-0.14s-0.84,0-0.98-0.14l0,0l0,0c-0.42-0.28-0.56-0.7-0.56-1.12
		c0-0.14,0-0.42,0-0.56h-0.14l0.14,0.14c0.28-0.56,0.7-0.7,1.26-0.84c0.56-0.14,1.12-0.14,1.82-0.28h0.14l0.14-0.42l0,0l0.14-3.65
		l0.28-0.14l9.68,0.28l0,0c1.12,0,2.1,0.42,3.09,0.84h0.14h0.14c1.96-1.54,5.05-0.7,7.57-1.12v-0.14v0.14
		c1.82,0.42,3.51,0.14,5.19,0.42V33.87l-0.14,0.14L125.72,33.87v-0.14c-1.82-0.42-3.51-0.14-5.19-0.42l0,0l0,0
		c-2.38,0.42-5.61-0.42-7.72,1.26l0.14,0.14v-0.14c-1.12-0.28-2.1-0.84-3.23-0.84v0.14v-0.14l-9.82-0.28l-0.42,0.28h-0.14
		l-0.14,3.79l-0.14,0.28l0.14,0.14V37.8c-0.56,0.14-1.12,0.14-1.68,0.28c-0.56,0.14-1.12,0.42-1.54,1.12l0,0l0,0
		c0,0.14,0,0.42,0,0.56c0,0.56,0.14,1.12,0.7,1.54l0.14-0.14l-0.14,0.14c0.42,0.28,1.12,0.28,1.54,0.28c0.28,0,0.42,0,0.56,0.14
		s0.28,0.14,0.28,0.42h0.14h-0.14c0,0.42,0,0.84,0,1.26c0,1.68,0.14,3.51,0.14,5.19h0.14h-0.14l-0.14,0.28h-0.42h-0.28
		c-0.14,0-0.42,0-0.7,0.14l0.14,0.14v-0.14c-0.7,0.14-1.4,0.56-1.54,1.4h0.14h-0.14v0.28c0,0.56,0.14,1.26,0.84,1.54l0.14-0.14
		l-0.14,0.14c0.42,0.14,0.84,0.14,1.26,0.28c0.42,0,0.7,0.14,0.84,0.42l0.14-0.14h-0.14c0,0.28,0.14,0.42,0.14,0.7
		c0,0.42-0.14,0.98-0.14,1.54c0,0.7,0.14,1.26,0.7,1.82l0,0l6.31,0.14v-0.14v0.14c0.28,0,0.56,0,0.84,0c0.42,0,0.84,0,1.26,0
		c1.54,0,2.95,0.14,4.07,0.84l0,0l0,0c0.28,0.14,0.42,0.14,0.7,0.14c0.84,0,1.54-0.56,2.24-0.98l-0.14-0.14v0.14l8.42,0.14
		c0.84,0,1.82,0,2.67-0.42h0.14V56.6c0-0.28,0.14-0.7,0.14-0.98c0-0.56,0-1.12,0-1.54c0-0.42,0-0.7,0.14-1.12h-0.14h0.14
		c0.14-0.28,0.28-0.42,0.7-0.42c0.28,0,0.7,0,1.12-0.28l-0.14-0.14v0.14c0.56-0.28,1.12-0.7,1.12-1.4l0,0l0,0
		c0-0.7-0.42-1.12-0.7-1.54l0,0l0,0c-0.84-0.42-1.68-0.28-2.24-0.7l-0.14,0.14h0.14c0-1.68-0.14-3.23-0.14-4.77
		c0-0.7,0-1.54,0.14-2.24h-0.14l0.14,0.14c0.28-0.28,0.56-0.28,0.98-0.28c0.42,0,0.98,0,1.4-0.42l0,0l0,0
		c0.28-0.42,0.7-0.84,0.7-1.54v-0.28h-0.14h0.14c-0.14-0.98-0.84-1.26-1.4-1.4c-0.7-0.14-1.4-0.14-1.68-0.42l-0.14,0.14h0.14
		c0-0.28,0-0.42,0-0.7c0-0.42,0-0.84,0-1.4c0-0.7-0.14-1.26-0.56-1.82l0,0l0,0L125.72,33.87z"/>
	<path id="XMLID_93_" class="st2" d="M111.69,53.65c0.28,0.14,0.28,0.56,0,0.56c-0.84,0.98-1.96-0.28-3.09,0
		c-1.82-0.28-3.93,0-5.75-0.28c0.56-1.54,2.67-0.56,3.93-0.98C108.47,53.37,110.29,52.81,111.69,53.65 M122.22,53.37
		c0.42,0.28,0.7,0.56,0.84,0.98c-2.95,0.42-5.75-0.28-8.56,0.42c-0.42-0.14-0.56-0.56-0.42-0.84c0.56-0.7,1.54-0.56,2.38-0.7
		L122.22,53.37z M113.8,55.2c0.14,0.7,0.14,1.54-0.84,1.54c-0.56,0.14-1.12-0.28-1.26-0.7c-0.14-0.7,0.28-1.4,0.84-1.68
		C113.24,54.35,113.52,54.92,113.8,55.2 M101.74,34.86c-0.14,0.56-0.84,0.98-1.12,1.54c0.14,5.89,0,12.2,0.28,18.38l0.56,0.28
		c3.09,0,6.45-0.7,9.26,0.7v0.14c-3.51-0.14-6.87,0.28-10.24-0.14l-0.28-0.42c-0.14-1.26,0.14-2.52-0.42-3.65
		c-0.84-0.7-3.09,0.28-2.52-1.4c0.84-0.7,2.24,0.28,2.67-0.84c0-2.95,0.14-5.61-0.14-8.42c-0.7-0.84-1.82-0.28-2.67-0.56
		c-0.28-0.28-0.56-0.7-0.28-1.12c0.98-0.84,3.65,0.28,3.09-1.96c0.28-0.98-0.42-2.67,0.84-2.81
		C101.17,34.58,101.6,34.58,101.74,34.86 M125.16,35c0.28,1.4-0.28,2.67,0.56,3.93c0.84,0.28,2.24-0.28,2.67,0.56
		c-0.14,1.68-2.38,0.42-2.95,1.68c0.28,2.67-0.28,4.91,0.14,7.86c-0.28,0.28-0.42,0.56-0.14,0.84c0.84,0.7,1.82-0.42,2.53,0.28
		c0.56,0.14,0.28,0.56,0.28,0.84c-0.7,0.98-2.24-0.14-2.67,1.12l-0.14,3.65l-0.56,0.28h-9.54v-0.28l1.12-0.42h7.29
		c0.42,0,0.84-0.42,0.84-0.84c-0.14-5.61-0.14-11.5-0.14-17.67l-0.84-1.68C123.9,34.44,124.88,34.44,125.16,35 M102.86,37.24v15.43
		c-0.14,0.42-0.7,0.7-0.98,0.98l-0.28-0.28c0-1.68,0-3.51,0-5.05v-1.26c-0.14-3.37-0.14-7.15,0-10.52c0.28-0.28,0.56-0.84,0.98-0.98
		C102.86,36.12,102.72,36.54,102.86,37.24 M123.76,36.4c-0.14,4.07,0,7.86,0.14,11.64c-0.14,1.82-0.14,3.37-0.14,5.05l-0.28,0.28
		c-1.26-0.56-0.84-1.82-0.84-2.95c0.14-1.54-0.14-3.23,0.14-4.77l-0.28-0.56l0.14-9.4C122.92,35.14,123.48,36.12,123.76,36.4
		 M121.93,36.68c0-0.7,0.14-1.4-0.28-1.96l-2.52-0.14c-1.82,0.28-3.93-0.28-5.47,0.7c-0.7,0.84-0.42,1.82-0.56,2.95
		c0.14,0.56,0.28,1.26,0.56,1.82l-0.28,0.84l-1.12-0.28l-0.28-0.56c0.14-0.42,0.28-0.84,0.28-1.4c0-1.26,0.42-3.09-1.26-3.65
		c-2.38-0.14-4.49-0.28-7.01-0.28L103.56,35c0,5.47,0,10.24,0,15.71c0,0.7-0.28,1.54,0.56,1.82c2.1-0.28,3.93,0,5.89-0.14
		c0.7,0,1.26,0.7,2.1,0.56c0.28-2.24,0.28-4.91,0.14-7.29c-0.14-0.14,0-0.7-0.28-0.84V44.4l1.26,0.14l0.14,0.42l-0.14,0.14
		l-0.14,7.43c0,0.28,0,0.84,0.56,0.7c2.24-1.26,4.91-0.42,7.57-0.7l0.56-0.28c0.28-1.26,0.14-5.61,0.14-5.61
		C121.93,43.27,121.93,40.05,121.93,36.68"/>
	<path id="XMLID_94_" class="st0" d="M113.24,43.55c-0.14,0.42-0.84,0.42-1.12,0.28l-0.42-0.14c0.28-0.84,0-1.68,0.7-2.24
		C112.96,41.73,112.96,42.71,113.24,43.55"/>
	<path id="XMLID_103_" class="st0" d="M76.49,46.22c-0.84-0.7-1.12-1.82-1.82-2.67c0.28-0.42,0.84-0.56,1.12-0.84
		c0.56-0.56,1.12-1.4,0.84-2.24c-0.14-0.7-0.42-1.4-1.12-1.82c-1.54-0.56-3.37-0.28-4.91-0.14c-0.28,0.14-0.42,0.42-0.14,0.56
		c0.56,0.28,0.84,0.7,0.84,1.12c-0.14,1.96-0.14,3.93-0.28,5.75l-0.84,0.84c0.84,0.7,1.82,0.14,3.09,0.42
		c0.28-0.56-0.56-0.84-0.7-1.4c0.14-0.56,0-1.4,0.42-1.82c1.12,0.98,1.4,2.38,2.67,3.23l1.68,0.14v-0.98
		C77.05,46.64,76.63,46.36,76.49,46.22 M74.24,42.71c-0.42,0-1.26,0.42-1.4-0.28c0-0.98-0.42-2.1,0-3.09
		c0.7-0.56,1.68-0.28,2.1,0.42c0.28,0.56,0.28,1.12,0.28,1.68C74.94,42.01,74.8,42.57,74.24,42.71 M113.66,44.68
		c0.28,0.42,0.42,0.84,0.42,1.4l-0.56,0.84l0.42,0.28c0.84,0,1.96,0.28,2.81-0.14c-0.28-0.42-0.7-0.56-0.98-0.84
		c-0.98-2.67-1.68-5.47-2.52-8.14l-0.84,0.42c-0.56,2.38-1.54,4.63-2.1,7.15c-0.14,0.42-0.56,0.56-0.98,0.84
		c-0.56,0.14-0.7-0.42-0.98-0.7c0-2.1,0.28-3.93,0.14-6.31c-0.14-0.42,0.42-0.84,0.7-0.42c0.56,0.28,0.56,0.98,0.7,1.54
		c0.14,0.28,0.56,0.28,0.56-0.14l0.42-2.24c-0.28-0.7-0.98,0.14-1.54,0c-1.12-0.14-2.53,0.28-3.65-0.42
		c-0.84,0.28-0.56,1.54-0.84,2.24l0.14,0.42c0.7-0.42,1.12-1.54,2.1-1.26l0.14,2.1l-0.28,4.63c-0.28,0.42-0.98,0.42-0.98,0.98
		c1.26,0.42,2.67,0,3.93,0.14c0.7,0,1.54,0.28,2.1,0V46.5c-0.42-0.28-0.98-0.56-0.84-1.12c0.28-0.42,0.28-1.12,0.98-0.84l0.28,0.14
		l0.98,0.14l0,0C113.38,44.82,113.38,44.68,113.66,44.68 M112.12,43.69l-0.42-0.14c0.28-0.84,0-1.68,0.7-2.24
		c0.7,0.42,0.56,1.4,0.84,2.24C113.1,43.83,112.4,43.83,112.12,43.69 M120.11,38.78c0,0.56,0.42,1.4,0,1.82
		c-0.56-0.42-0.56-0.84-1.4-1.12c-0.42,0-0.84,0.14-0.98,0.56c-0.14,1.54,1.4,1.54,2.24,2.52c0.84,0.84,1.12,2.1,0.84,3.09
		c-0.28,0.84-0.7,1.26-1.54,1.26c-0.7,0.14-1.26-0.42-1.82-0.14c-0.14,0-0.42,0.14-0.56-0.14l0.14-2.81l0.42-0.28
		c0.42,0.98,0.14,2.1,1.4,2.1c0.42,0,0.84-0.14,0.84-0.7c0.14-2.52-3.23-1.96-3.09-4.49c0.14-0.56,0.14-1.12,0.42-1.54
		c0.56-0.98,1.82-0.42,2.81-0.98C120.11,38.08,120.11,38.64,120.11,38.78 M84.2,38.64c-0.7,0.42-1.54,0.98-1.26,1.96
		c-0.28,1.68-0.14,3.51,0,5.33l1.12,0.98l-0.14,0.14c-1.26,0-2.38,0.28-3.65,0c-0.56-0.56,0.7-0.84,0.84-1.26
		c0.28-1.96,0.42-4.07,0.28-6.31c-0.28-0.7-1.26-0.42-0.98-1.12c1.12-0.14,2.52-0.14,3.65,0L84.2,38.64z M49.41,40.05
		c-0.7,0.84-0.84-0.84-1.54-0.84c-0.42,0-1.12-0.14-1.4,0.14c-0.14,0.98-0.28,1.82,0,2.67c0.28,0.28,0.84,0.14,1.26,0.14
		c0.42-0.28,0.7-1.12,1.26-0.98c0.42,0.42-0.14,0.98,0,1.26c-0.14,0.56,0.42,1.26-0.28,1.4c-0.42-0.28-0.7-0.98-1.26-0.98
		l-0.98,0.14c-0.42,1.26-0.28,2.38,0,3.65c0.56,0.56,1.26,0,1.96,0c0.98-0.14,0.7-1.54,1.54-1.4c0.28,0.56,0.28,1.26,0.14,1.82
		l-0.42,0.28h-5.05c-0.28-0.14-0.7-0.14-0.56-0.42c1.68-0.98,0.7-2.95,0.98-4.49c-0.28-1.12,0.7-2.95-0.84-3.65
		c-0.14-0.42,0.42-0.28,0.56-0.42c1.26,0,2.95,0.42,4.07-0.56C49.41,38.22,49.41,39.35,49.41,40.05 M41.56,38.92
		c-1.4,1.12-1.54,3.23-2.1,4.77c-0.56,0.98-0.28,2.24-1.26,3.09c-0.42,0.14-0.7-0.28-0.7-0.56c-0.56-2.24-1.12-4.49-1.96-6.59
		c-0.14-0.7-1.54-0.84-0.7-1.26c1.12-0.14,1.82,0.14,2.81,0c0.28,0.7-0.84,0.98-0.56,1.82c0.7,0.98,0.42,2.38,1.26,3.23l0.42-0.42
		c0-1.68,1.96-3.09,0.28-4.63c0.42-0.56,1.4-0.14,2.1-0.42C41.42,38.36,41.98,38.5,41.56,38.92"/>
</g>
</svg>
