<?xml version="1.0" encoding="utf-8"?>
<!-- Generator: Adobe Illustrator 27.1.1, SVG Export Plug-In . SVG Version: 6.00 Build 0)  -->
<svg version="1.1" id="Layer_1" xmlns="http://www.w3.org/2000/svg" xmlns:xlink="http://www.w3.org/1999/xlink" x="0px" y="0px"
	 viewBox="0 0 587.48 604.24" style="enable-background:new 0 0 587.48 604.24;" xml:space="preserve">
<style type="text/css">
	.st0{fill:none;stroke:#74149B;stroke-width:3.0329;stroke-miterlimit:10;}
</style>
<g>
	<path class="st0" d="M50.33,601.08H2.99V260.53c0-2.64,2.14-4.79,4.79-4.79h37.77c2.64,0,4.79,2.14,4.79,4.79V601.08z"/>
	<path class="st0" d="M103.73,601.08H56.38V377.92c0-2.24,1.82-4.06,4.06-4.06h39.23c2.24,0,4.06,1.82,4.06,4.06V601.08z"/>
	<path class="st0" d="M157.12,601.08h-47.35V423.33c0-2.06,1.67-3.73,3.73-3.73h39.88c2.06,0,3.73,1.67,3.73,3.73V601.08z"/>
	<path class="st0" d="M209.81,601.08h-47.35V276.26c0-2.59,2.1-4.7,4.7-4.7h37.95c2.59,0,4.7,2.1,4.7,4.7V601.08z"/>
	<path class="st0" d="M263.2,601.08h-47.35V251.02c0-2.67,2.17-4.84,4.84-4.84h37.66c2.67,0,4.84,2.17,4.84,4.84V601.08z"/>
	<path class="st0" d="M316.6,601.08h-47.35V81.84c0-3.16,2.56-5.73,5.73-5.73h35.89c3.16,0,5.73,2.56,5.73,5.73V601.08z"/>
	<path class="st0" d="M423.39,601.08h-47.35V229.77c0-2.74,2.22-4.96,4.96-4.96h37.42c2.74,0,4.96,2.22,4.96,4.96V601.08z"/>
	<path class="st0" d="M369.99,601.08h-47.35v-177.7c0-2.06,1.67-3.73,3.73-3.73h39.88c2.06,0,3.73,1.67,3.73,3.73V601.08z"/>
	<path class="st0" d="M476.78,601.08h-47.35V366.5c0-2.28,1.85-4.13,4.13-4.13h39.08c2.28,0,4.13,1.85,4.13,4.13V601.08z"/>
	<path class="st0" d="M530.18,601.08h-47.35v-49.53c0-1.45,1.17-2.62,2.62-2.62h42.11c1.45,0,2.62,1.17,2.62,2.62V601.08z"/>
	<path class="st0" d="M583.57,601.08h-47.35V444.24c0-1.98,1.6-3.58,3.58-3.58H580c1.98,0,3.58,1.6,3.58,3.58V601.08z"/>
</g>
</svg>
